<svg width="52" height="61" viewBox="0 0 52 61" fill="none" xmlns="http://www.w3.org/2000/svg">
<path id="Vector" d="M23.7709 51.4767C23.387 51.2476 23.2573 50.7496 23.4867 50.366C23.7136 49.98 24.2122 49.8505 24.5986 50.0796C29.378 52.9012 36.4807 56.2606 42.0353 54.9682C43.5486 54.617 43.4265 53.0855 43.3292 51.8652C43.2096 50.3959 43.1123 49.1856 44.6057 48.9988C45.3661 48.9042 45.5082 48.1795 45.2764 47.6317L45.2789 47.6292C45.1841 47.3901 45.0021 47.1959 44.7703 47.0838L43.4165 46.7625H43.419C42.9827 46.6555 42.7159 46.2197 42.8181 45.7838C42.9203 45.3505 43.3566 45.079 43.7929 45.1812L45.194 45.5173C45.917 45.6892 46.6625 45.2384 46.4606 44.6457L46.4631 44.6432C46.4232 44.5312 46.4107 44.4116 46.4257 44.2921L46.6401 42.4741C46.65 42.3795 46.6775 42.2874 46.7198 42.2002C47.1611 41.234 48.0761 40.9899 49.0035 40.7433C49.5096 40.6113 50.0232 40.4744 50.2451 40.2278C50.7038 39.7073 49.8163 38.3252 48.7667 36.6965C48.1683 35.7975 47.6198 34.8686 47.1187 33.9123C46.7672 33.1951 46.5628 32.4156 46.5179 31.6187C46.478 30.9114 46.5179 30.2017 46.6326 29.5044C46.6351 28.1397 46.9118 26.9717 47.1761 25.871C47.3705 25.0492 47.555 24.2623 47.5899 23.5127C47.7769 19.588 46.1065 15.2147 44.0223 11.9722C41.0555 7.35514 36.0169 4.39907 30.8612 2.81801C25.2167 1.08974 19.2133 1.17689 14.0947 3.42067C9.54225 5.42039 5.68524 9.14098 3.41439 14.8266C-0.607023 24.8823 2.69388 35.5882 7.8347 44.5314C8.36823 45.4553 8.58514 45.5102 8.61508 46.8947C8.72478 51.7135 5.79036 55.1105 5.0599 59.1894L27.4882 59.3812C27.755 59.0624 28.0766 58.3626 28.3832 57.5508V57.5483C28.7772 56.5073 29.0838 55.434 29.3007 54.3433C27.4034 53.4941 25.5585 52.5376 23.7709 51.4767ZM9.67989 31.1033L8.6303 28.0552H8.62781C7.7727 28.1274 6.9225 27.851 6.2743 27.2907C5.62362 26.7279 5.22721 25.9285 5.17481 25.0718C5.12246 24.2151 5.41913 23.3734 5.99507 22.7383C6.57098 22.1008 7.38127 21.7248 8.24136 21.6924L8.71505 19.4511C7.92223 19.0552 7.32886 18.3454 7.07956 17.4962C6.83026 16.647 6.94743 15.7306 7.40118 14.971C7.85243 14.209 8.60285 13.6711 9.47048 13.4843C10.3381 13.2976 11.2431 13.4794 11.9686 13.9874L14.2099 12.0847V12.0823C13.8359 11.2953 13.7985 10.3889 14.1102 9.57449C14.4218 8.76018 15.0551 8.10767 15.8604 7.77151C16.6656 7.43534 17.5756 7.44279 18.3734 7.79392C19.1737 8.14506 19.7945 8.80746 20.0912 9.6268L22.3025 9.43256C22.7339 6.90739 25.8677 5.88632 27.7026 7.71921L27.7051 7.7217C28.2337 8.24716 28.5602 8.94198 28.6276 9.68406L30.8988 10.0651C31.2902 9.19346 32.0531 8.54351 32.9781 8.29449C33.903 8.04546 34.8878 8.22476 35.6681 8.7801C36.446 9.33794 36.9321 10.212 36.9944 11.1658C37.0568 12.1196 36.6853 13.051 35.9872 13.7035L37.321 16.1814L37.3185 16.1839C38.221 15.9672 39.1709 16.154 39.9238 16.6944C40.6767 17.2348 41.1579 18.0765 41.2402 18.998C41.3224 19.9219 41.0008 20.8333 40.3551 21.5008C39.7094 22.1657 38.8069 22.5168 37.882 22.467L36.8249 25.7244C37.6376 26.2473 38.1687 27.1065 38.2734 28.0678C38.3756 29.0265 38.039 29.9803 37.3559 30.6627C35.6082 32.4084 32.634 31.5791 32.0132 29.2183H27.2937C27.0718 30.0575 26.5184 30.7723 25.758 31.1932C24.9976 31.614 24.1 31.7087 23.2699 31.4547L21.0061 35.098C22.9283 37.1276 21.4823 40.4771 18.69 40.4771H18.6875C17.7301 40.4771 16.8251 40.0488 16.2193 39.3092C15.6135 38.5695 15.3717 37.5983 15.5611 36.6644L13.8684 35.8401V35.8376C13.2675 36.535 12.3924 36.9384 11.4725 36.9434C10.55 36.9483 9.67244 36.5549 9.06165 35.8651C8.45084 35.1777 8.16914 34.2588 8.28632 33.3448C8.40599 32.4334 8.912 31.6139 9.67989 31.1033ZM10.166 27.5297L11.2156 30.5778V30.5753C11.5721 30.5504 11.9312 30.5828 12.2752 30.675L13.2799 28.9193C12.6741 28.3316 12.3301 27.5272 12.3201 26.683L11.1957 26.4041C10.9464 26.8573 10.5949 27.2408 10.166 27.5297ZM17.1739 29.3676L18.585 34.1042C18.939 34.0917 19.2906 34.139 19.6271 34.2411L21.8884 30.5978V30.6003C21.3698 30.0524 21.0606 29.3402 21.0208 28.5882L18.3781 28.0502V28.0477C18.1088 28.5931 17.6925 29.0488 17.1739 29.3676ZM17.0293 34.5648L15.6157 29.8258C15.3041 29.8382 14.99 29.8008 14.6883 29.7212L13.6836 31.4768C14.4564 32.2314 14.793 33.3246 14.5786 34.3831L16.2714 35.2074V35.2099C16.4883 34.9558 16.7426 34.7392 17.0268 34.5649L17.0293 34.5648ZM21.5294 21.2144L23.9228 25.2363L23.9203 25.2338C24.197 25.2089 24.4738 25.2189 24.7455 25.2662L26.3461 21.7524C25.7926 21.3041 25.4062 20.6815 25.2491 19.9867L22.3122 19.8921H22.3147C22.1651 20.3902 21.8933 20.8434 21.5268 21.2145L21.5294 21.2144ZM22.3721 25.8016L20.1382 22.0437L20.1357 22.0412C19.6471 22.1832 19.131 22.2031 18.6299 22.1035L17.5927 24.2277H17.5952C18.2534 24.7906 18.6523 25.5999 18.6997 26.464L21.3424 26.9995C21.5792 26.5213 21.9333 26.108 22.3696 25.7991L22.3721 25.8016ZM27.827 22.4297L26.2264 25.9411L26.224 25.9386C26.7475 26.3644 27.1214 26.9446 27.2935 27.5947H32.013C32.1277 27.1613 32.3321 26.7554 32.6163 26.4092L29.5423 22.2454C28.9963 22.4621 28.4029 22.5244 27.8245 22.4272L27.827 22.4297ZM30.8512 21.2866L33.9227 25.4479L33.9202 25.4454C34.3515 25.2736 34.8177 25.1989 35.2815 25.2238L36.3385 21.9664C35.6678 21.5331 35.1817 20.8657 34.9798 20.0962H31.452C31.3373 20.5295 31.1304 20.9329 30.8487 21.2816L30.8512 21.2866ZM24.3718 12.979L21.6717 16.9013L21.6692 16.8963C22.0108 17.2923 22.2501 17.7654 22.3673 18.2735L25.3067 18.3731C25.5286 17.6309 26.0123 16.9934 26.668 16.5825L25.5959 13.1608V13.1583C25.1796 13.1807 24.7607 13.1185 24.3693 12.974L24.3718 12.979ZM20.3404 15.9848L23.0355 12.0626L23.0305 12.0576C22.7762 11.7613 22.5768 11.4201 22.4446 11.0515L20.2333 11.2458C20.0712 12.1921 19.4903 13.0139 18.6551 13.4846L19.2584 15.7931H19.2559C19.6249 15.7906 19.9889 15.8554 20.3355 15.9799L20.3404 15.9848ZM29.45 16.2862L31.3947 13.4596L31.3897 13.4547C30.9584 12.9516 30.6916 12.3241 30.6293 11.6641L28.358 11.2856H28.3605C28.0987 11.8559 27.6774 12.3414 27.1439 12.6752L28.2135 16.0969C28.6323 16.0795 29.0512 16.1417 29.4451 16.2812L29.45 16.2862ZM32.7309 14.3761L30.7788 17.2026C31.0979 17.5687 31.3273 18.002 31.452 18.4727H34.9797C35.1318 17.8875 35.4484 17.3595 35.8897 16.9486L34.5534 14.4707C33.9475 14.6177 33.3143 14.5828 32.7259 14.3711L32.7309 14.3761ZM12.315 18.9459L14.7732 23.5455L14.7707 23.5405C15.2195 23.4359 15.6832 23.4259 16.1369 23.5156L17.1716 21.3938H17.1691C16.466 20.7887 16.0621 19.9071 16.0646 18.9807L12.9282 18.1664C12.7637 18.4552 12.5543 18.7167 12.3124 18.9408L12.315 18.9459ZM13.3496 24.3076L10.8864 19.7079L10.8839 19.7055C10.6919 19.7478 10.4975 19.7752 10.3005 19.7876L9.82681 22.0264C10.8914 22.5619 11.5695 23.6427 11.5845 24.833L12.7088 25.1119H12.7113C12.8784 24.8106 13.0928 24.5367 13.3471 24.3026L13.3496 24.3076ZM17.6951 16.204L17.0893 13.8954L17.0843 13.893C16.4336 13.893 15.7979 13.6912 15.2643 13.3202L13.023 15.2228C13.2299 15.6511 13.3371 16.1218 13.3346 16.5974L16.471 17.4168H16.4735C16.7577 16.9063 17.1791 16.4854 17.6901 16.199L17.6951 16.204ZM20.3628 17.8725C19.914 17.4267 19.2409 17.2923 18.655 17.5338C18.0716 17.7779 17.6901 18.3481 17.6901 18.9807C17.6901 19.6107 18.0716 20.181 18.655 20.4251C19.2408 20.6666 19.914 20.5321 20.3628 20.0864C20.9736 19.4738 20.9736 18.4852 20.3628 17.8725ZM29.4704 18.1763C29.0217 17.7281 28.3485 17.5961 27.7626 17.8376C27.1792 18.0792 26.7978 18.6495 26.7978 19.282C26.7978 19.9146 27.1792 20.4848 27.7626 20.7264C28.3485 20.968 29.0217 20.836 29.4704 20.3877C30.0812 19.7776 30.0812 18.7865 29.4704 18.1763ZM25.3169 27.3031C24.8681 26.8549 24.1925 26.7204 23.6091 26.962C23.0232 27.2035 22.6393 27.7763 22.6393 28.4088C22.6393 29.0414 23.0232 29.6141 23.6091 29.8557C24.1925 30.0972 24.8681 29.9628 25.3169 29.5145C25.9252 28.9044 25.9252 27.9133 25.3169 27.3031ZM36.2065 27.3031C35.7578 26.8549 35.0846 26.7229 34.5012 26.9645C33.9153 27.206 33.5339 27.7763 33.5339 28.4088C33.5339 29.0414 33.9153 29.6116 34.5012 29.8532C35.0846 30.0948 35.7578 29.9628 36.2065 29.5145C36.8173 28.9044 36.8173 27.9133 36.2065 27.3031ZM39.1733 18.1763C38.7245 17.7281 38.0514 17.5961 37.4655 17.8376C36.8821 18.0792 36.5007 18.6495 36.5007 19.282C36.5007 19.9146 36.8821 20.4848 37.4655 20.7264C38.0514 20.968 38.7246 20.836 39.1733 20.3877C39.7841 19.7776 39.7841 18.7865 39.1733 18.1763ZM34.9175 10.2647C34.4688 9.81894 33.7956 9.68446 33.2097 9.92602C32.6263 10.1701 32.2449 10.7403 32.2449 11.3729C32.2449 12.0054 32.6264 12.5757 33.2097 12.8173C33.7956 13.0588 34.4688 12.9243 34.9175 12.4786C35.5283 11.866 35.5283 10.8774 34.9175 10.2647ZM26.5559 8.86765C26.1096 8.42188 25.4365 8.2874 24.8506 8.52896C24.2647 8.77301 23.8833 9.34327 23.8833 9.97582C23.8833 10.6084 24.2647 11.1786 24.8506 11.4202C25.4365 11.6618 26.1097 11.5273 26.5559 11.0815C27.1667 10.4689 27.1667 9.48031 26.5559 8.86765ZM18.1963 9.59729C17.7475 9.15152 17.0744 9.01704 16.491 9.25861C15.9051 9.50266 15.5236 10.0729 15.5236 10.7055C15.5236 11.338 15.9051 11.9083 16.491 12.1498C17.0743 12.3914 17.7475 12.2569 18.1963 11.8112C18.8071 11.1985 18.8071 10.21 18.1963 9.59729ZM11.2529 15.4969C10.8041 15.0486 10.131 14.9166 9.54506 15.1582C8.96168 15.3998 8.58024 15.97 8.58024 16.6026C8.58024 17.2351 8.96169 17.8054 9.54506 18.0469C10.1309 18.291 10.8041 18.1565 11.2529 17.7108C11.8637 17.0981 11.8637 16.1071 11.2529 15.4969ZM9.50019 23.772C9.05392 23.3237 8.3783 23.1917 7.79488 23.4333C7.209 23.6748 6.82757 24.2451 6.82757 24.8776C6.82757 25.5102 7.20902 26.0805 7.79488 26.322C8.37827 26.5661 9.05394 26.4316 9.50019 25.9833C10.111 25.3732 10.111 24.3821 9.50019 23.772ZM16.6204 25.5376C16.1716 25.0893 15.4985 24.9573 14.9126 25.1989C14.3292 25.4405 13.9478 26.0107 13.9478 26.6433C13.9478 27.2758 14.3292 27.8461 14.9126 28.0876C15.4985 28.3292 16.1716 28.1972 16.6204 27.749C17.2312 27.1388 17.2312 26.1478 16.6204 25.5376ZM12.5591 32.6473C12.1103 32.2015 11.4372 32.0671 10.8513 32.3086C10.2679 32.5527 9.88645 33.1229 9.88645 33.7555C9.88645 34.388 10.2679 34.9583 10.8513 35.1999C11.4372 35.4414 12.1103 35.3069 12.5591 34.8612C13.1699 34.2486 13.1699 33.26 12.5591 32.6473ZM19.7967 36.1836C19.3479 35.7353 18.6748 35.6009 18.0889 35.8449C17.5055 36.0865 17.1241 36.6567 17.1241 37.2893C17.1241 37.9218 17.5055 38.4921 18.0889 38.7337C18.6748 38.9752 19.348 38.8432 19.7967 38.395C20.4075 37.7849 20.4075 36.7938 19.7967 36.1836ZM32.6112 55.6332C32.0128 55.434 31.417 55.2148 30.8261 54.9832C30.497 56.5322 29.4698 60.0436 28.2482 60.8654V60.8629C28.1111 60.9551 27.9515 61.0024 27.787 60.9999L4.1447 60.8007C3.91533 60.8032 3.69594 60.7085 3.54137 60.5417C3.38679 60.3723 3.30951 60.1482 3.32945 59.9191C3.76076 55.1726 7.10157 51.5988 6.99683 46.927C6.97938 46.0878 6.84475 46.0529 6.43339 45.3357C1.03581 35.9519 -2.31495 24.7953 1.9109 14.2264C4.35663 8.11009 8.52241 4.10057 13.4515 1.93681C18.9289 -0.466338 25.3362 -0.56847 31.3369 1.27187C36.8492 2.96278 42.2067 6.1504 45.3909 11.0987C47.6547 14.6225 49.4148 19.317 49.2104 23.5903C49.1156 25.6025 48.2555 27.3184 48.2555 29.5472C48.2555 29.5896 48.253 29.6319 48.2455 29.6718C48.061 30.8422 48.0261 32.0949 48.5721 33.1931C49.0458 34.0946 49.5669 34.9737 50.1328 35.8204C51.5389 38.0094 52.7306 39.8647 51.4616 41.3016C50.9181 41.9167 50.1627 42.1159 49.4148 42.3151C48.9087 42.4496 48.4076 42.5816 48.233 42.8157L48.056 44.3224V44.3199C48.1383 44.6511 48.1408 44.9997 48.061 45.336C47.8815 46.0333 47.3903 46.611 46.7322 46.9073C47.4427 48.4439 46.7023 50.3739 44.8001 50.6105C44.7477 50.6179 44.8948 51.116 44.9472 51.741C45.0942 53.5714 45.2787 55.88 42.3967 56.5474C39.3227 57.2646 35.8994 56.7242 32.6087 55.6334L32.6112 55.6332Z" fill="black"/>
</svg>
