<svg width="233" height="66" viewBox="0 0 233 66" fill="none" xmlns="http://www.w3.org/2000/svg">
<path d="M17.9304 37.5087C15.3788 37.5087 12.9995 37.0821 10.8134 36.2358C8.62038 35.3895 6.72389 34.1795 5.11016 32.6128C3.50332 31.0461 2.24819 29.2067 1.35168 27.0944C0.455156 24.9822 0 22.6671 0 20.1352C0 17.6033 0.44826 15.2883 1.35168 13.176C2.24819 11.0638 3.51022 9.22433 5.13774 7.65764C6.76527 6.09094 8.66865 4.88096 10.8617 4.03466C13.0547 3.18837 15.427 2.76172 17.9787 2.76172C20.8475 2.76172 23.4474 3.2653 25.7853 4.27246C28.1162 5.27962 30.0748 6.76238 31.654 8.71375L26.6887 13.3159C25.5853 12.008 24.3301 11.0148 22.9302 10.3434C21.5234 9.67196 20.0062 9.33623 18.3648 9.33623C16.8201 9.33623 15.3994 9.60202 14.1098 10.1266C12.8133 10.6511 11.6961 11.3995 10.7513 12.3577C9.80654 13.3159 9.06863 14.456 8.55141 15.7639C8.03419 17.0788 7.77213 18.5336 7.77213 20.1282C7.77213 21.7229 8.03419 23.1847 8.55141 24.4926C9.06863 25.8075 9.80654 26.9406 10.7513 27.8988C11.6961 28.857 12.8133 29.6053 14.1098 30.1299C15.3994 30.6545 16.8201 30.9203 18.3648 30.9203C20.0062 30.9203 21.5234 30.5775 22.9302 29.8921C24.3301 29.2067 25.5853 28.2065 26.6887 26.8916L31.654 31.4938C30.0748 33.4451 28.1231 34.9349 25.7853 35.956C23.4543 36.9772 20.8337 37.4878 17.9304 37.4878V37.5087Z" fill="white"/>
<path d="M37.5234 36.8712V3.28516H62.5501V9.52395H45.2335V36.8712H37.5234ZM44.6197 24.6314V18.3926H60.5157V24.6314H44.6197Z" fill="white"/>
<path d="M68.9277 36.8712V3.28516H76.6378V36.8712H68.9277Z" fill="white"/>
<path d="M85.59 36.8712V3.28516H91.9277L106.024 26.9884H102.665L116.479 3.28516H122.864V36.8712H115.72L115.623 14.4618H117.044L105.879 33.2692H102.472L91.1622 14.4618H92.7207V36.8712H85.5762H85.59Z" fill="white"/>
<path d="M140.609 37.4478C138.306 37.4478 136.037 37.133 133.796 36.5106C131.554 35.8881 129.63 34.9858 128.023 33.7968L131.003 27.8937C132.265 28.824 133.72 29.5653 135.375 30.1249C137.03 30.6844 138.726 30.9642 140.457 30.9642C142.382 30.9642 143.892 30.5725 144.995 29.7892C146.099 29.0058 146.65 27.9427 146.65 26.5998C146.65 25.2569 146.161 24.3127 145.181 23.5783C144.202 22.844 142.63 22.4732 140.451 22.4732H136.996V17.3885L146.175 6.73637L147.023 9.52005H129.658V3.28125H152.836V8.31705L143.657 18.9202L139.782 16.6681H142.002C146.071 16.6681 149.154 17.5983 151.25 19.4518C153.347 21.3052 154.395 23.6763 154.395 26.5509C154.395 28.4673 153.898 30.2648 152.905 31.9224C151.912 33.587 150.402 34.9229 148.388 35.9301C146.368 36.9372 143.768 37.4408 140.582 37.4408L140.609 37.4478Z" fill="white"/>
<path d="M173.888 37.5018C170.861 37.5018 168.24 36.8723 166.034 35.6063C163.827 34.3404 162.116 32.473 160.903 29.99C159.689 27.5141 159.082 24.4786 159.082 20.8976C159.082 16.9949 159.799 13.7006 161.234 11.0148C162.668 8.32908 164.654 6.27979 167.192 4.87396C169.73 3.46813 172.675 2.76172 176.012 2.76172C177.743 2.76172 179.419 2.96455 181.026 3.36322C182.633 3.76189 184.019 4.32841 185.191 5.0698L182.35 10.777C181.433 10.1406 180.461 9.69994 179.419 9.45514C178.378 9.21734 177.288 9.09844 176.157 9.09844C173.316 9.09844 171.047 9.9867 169.344 11.7632C167.64 13.5397 166.792 16.1346 166.792 19.5617C166.792 20.1352 166.806 20.7787 166.84 21.4781C166.868 22.1845 166.965 22.884 167.123 23.5904L164.992 21.576C165.592 20.3311 166.365 19.282 167.309 18.4357C168.254 17.5894 169.385 16.9459 170.689 16.5192C171.999 16.0856 173.44 15.8688 175.019 15.8688C177.164 15.8688 179.088 16.3024 180.792 17.1627C182.495 18.023 183.86 19.24 184.881 20.8067C185.902 22.3734 186.419 24.2128 186.419 26.3251C186.419 28.5982 185.867 30.5705 184.764 32.2491C183.66 33.9277 182.164 35.2217 180.267 36.1379C178.378 37.0471 176.247 37.5088 173.881 37.5088L173.888 37.5018ZM173.461 31.6966C174.53 31.6966 175.488 31.4938 176.323 31.0951C177.157 30.6964 177.812 30.1089 178.288 29.3465C178.764 28.5842 178.999 27.7029 178.999 26.7098C178.999 25.171 178.488 23.9471 177.461 23.0378C176.433 22.1286 175.075 21.667 173.371 21.667C172.233 21.667 171.24 21.8908 170.392 22.3384C169.544 22.786 168.868 23.3875 168.378 24.1359C167.889 24.8843 167.647 25.7585 167.647 26.7517C167.647 27.6819 167.882 28.5212 168.358 29.2696C168.833 30.018 169.495 30.6125 170.344 31.0462C171.192 31.4798 172.233 31.6966 173.468 31.6966H173.461Z" fill="white"/>
<path d="M204.609 37.5087C201.898 37.5087 199.478 36.8303 197.347 35.4665C195.216 34.1096 193.533 32.1372 192.285 29.5634C191.037 26.9895 190.416 23.8491 190.416 20.1352C190.416 16.4213 191.037 13.2809 192.285 10.7071C193.533 8.13324 195.216 6.16788 197.347 4.80401C199.478 3.44715 201.898 2.76172 204.609 2.76172C207.319 2.76172 209.788 3.44015 211.919 4.80401C214.05 6.16088 215.732 8.13324 216.981 10.7071C218.229 13.2809 218.849 16.4213 218.849 20.1352C218.849 23.8491 218.229 26.9895 216.981 29.5634C215.732 32.1372 214.05 34.1026 211.919 35.4665C209.788 36.8233 207.353 37.5087 204.609 37.5087ZM204.609 30.9832C205.898 30.9832 207.029 30.6055 207.988 29.8571C208.946 29.1087 209.705 27.9267 210.257 26.3321C210.808 24.7304 211.084 22.6671 211.084 20.1422C211.084 17.6173 210.808 15.5541 210.257 13.9524C209.705 12.3507 208.946 11.1757 207.988 10.4273C207.022 9.67896 205.898 9.30127 204.609 9.30127C203.319 9.30127 202.278 9.67896 201.298 10.4273C200.319 11.1757 199.547 12.3577 198.981 13.9524C198.416 15.5541 198.133 17.6173 198.133 20.1422C198.133 22.6671 198.416 24.7304 198.981 26.3321C199.547 27.9337 200.319 29.1087 201.298 29.8571C202.278 30.6055 203.381 30.9832 204.609 30.9832Z" fill="white"/>
<path d="M227.77 9.20433C226.757 9.20433 225.86 9.00849 225.067 8.61682C224.274 8.22514 223.653 7.6796 223.205 6.96619C222.757 6.25978 222.529 5.46944 222.529 4.58817C222.529 3.70691 222.757 2.8746 223.205 2.19617C223.653 1.51773 224.274 0.979181 225.053 0.587507C225.833 0.195834 226.729 0 227.743 0C228.757 0 229.701 0.195834 230.474 0.587507C231.246 0.979181 231.853 1.51774 232.294 2.21016C232.736 2.90258 232.957 3.69292 232.957 4.58817C232.957 5.48342 232.736 6.28077 232.294 6.98019C231.853 7.6796 231.246 8.22514 230.474 8.61682C229.701 9.00849 228.798 9.20433 227.77 9.20433ZM227.743 6.91024C228.426 6.91024 228.977 6.69342 229.412 6.26678C229.846 5.84013 230.06 5.28059 230.06 4.58817C230.06 3.89575 229.846 3.32223 229.426 2.90958C229.005 2.49692 228.453 2.29409 227.77 2.29409C227.088 2.29409 226.536 2.49692 226.102 2.90958C225.667 3.32223 225.453 3.88176 225.453 4.58817C225.453 5.29458 225.667 5.84013 226.102 6.26678C226.536 6.69342 227.081 6.91024 227.743 6.91024Z" fill="white"/>
<path d="M30.643 57.8657V57.8937C31.6706 58.0755 32.5464 58.8659 32.5464 60.3556C32.5464 62.1881 31.2568 63.2442 29.2362 63.2442H25.0156V53.3125H28.9603C30.9602 53.3125 32.1671 54.2707 32.1671 55.8094C32.1671 57.0334 31.4568 57.5859 30.6499 57.8657H30.643ZM29.1534 57.46C30.5534 57.46 30.9327 56.8515 30.9327 55.9493C30.9327 55.047 30.4154 54.4246 29.2913 54.4246H26.2501V57.467H29.1534V57.46ZM26.2501 62.1322H29.3603C30.9327 62.1322 31.3188 61.2859 31.3188 60.3556C31.3188 59.2855 30.6637 58.5791 29.6361 58.5791H26.257V62.1322H26.2501Z" fill="white"/>
<path d="M39.6989 56.1406V63.2257H38.6024V62.3794H38.5748C38.2024 62.876 37.4645 63.4216 36.2714 63.4216C34.9956 63.4216 33.9336 62.7151 33.9336 61.0925V56.1476H35.0301V60.8127C35.0301 61.729 35.4577 62.4494 36.5473 62.4494C37.7817 62.4494 38.6024 61.659 38.6024 60.5609V56.1476H39.6989V56.1406Z" fill="white"/>
<path d="M41.6016 54.0902C41.6016 53.6566 41.9878 53.4258 42.2843 53.4258C42.5808 53.4258 42.967 53.6636 42.967 54.0902C42.967 54.5169 42.5946 54.7547 42.2843 54.7547C41.974 54.7547 41.6016 54.5169 41.6016 54.0902ZM42.836 56.1325V63.2176H41.7395V56.1325H42.836Z" fill="white"/>
<path d="M45.8309 53.3125V63.2442H44.7344V53.3125H45.8309Z" fill="white"/>
<path d="M49.3965 57.1292V61.3886C49.3965 62.193 49.8378 62.3328 50.7688 62.2629V63.2351C50.5206 63.2911 50.2378 63.319 49.9482 63.319C49.0172 63.319 48.3068 62.9413 48.3068 61.5005V57.1292H47.2793V56.157H48.3068V53.793H49.4034V56.157H50.7757V57.1292H49.4034H49.3965Z" fill="white"/>
<path d="M56.9629 57.1292V61.3886C56.9629 62.193 57.4042 62.3328 58.3352 62.2629V63.2351C58.087 63.2911 57.8042 63.319 57.5146 63.319C56.5836 63.319 55.8733 62.9413 55.8733 61.5005V57.1292H54.8457V56.157H55.8733V53.793H56.9698V56.157H58.3421V57.1292H56.9698H56.9629Z" fill="white"/>
<path d="M62.7975 63.4268C60.6597 63.4268 59.377 61.9021 59.377 59.6919C59.377 57.4818 60.6666 55.957 62.7975 55.957C64.9285 55.957 66.2043 57.4818 66.2043 59.6919C66.2043 61.9021 64.9147 63.4268 62.7975 63.4268ZM62.7975 62.4546C64.3561 62.4546 65.1147 61.2027 65.1147 59.6919C65.1147 58.1812 64.363 56.9292 62.7975 56.9292C61.2321 56.9292 60.4666 58.1812 60.4666 59.6919C60.4666 61.2027 61.2183 62.4546 62.7975 62.4546Z" fill="white"/>
<path d="M76.5392 57.6489V58.761H72.1739V63.2442H70.9395V53.3125H77.5806V54.4246H72.1739V57.6489H76.5392Z" fill="white"/>
<path d="M83.4145 61.0558H84.511C84.1524 62.3777 83.1525 63.4268 81.4146 63.4268C79.2905 63.4268 78.0078 61.9161 78.0078 59.6919C78.0078 57.3279 79.325 55.957 81.3594 55.957C83.5524 55.957 84.6214 57.4678 84.6214 59.9857H79.1043C79.1043 61.2656 79.856 62.4546 81.3801 62.4546C82.78 62.4546 83.2973 61.5384 83.4214 61.0488L83.4145 61.0558ZM79.1043 59.0135H83.5249C83.5249 57.8734 82.6766 56.9292 81.3594 56.9292C80.0422 56.9292 79.0974 57.8734 79.0974 59.0135H79.1043Z" fill="white"/>
<path d="M91.018 61.0558H92.1145C91.7559 62.3777 90.756 63.4268 89.0181 63.4268C86.894 63.4268 85.6113 61.9161 85.6113 59.6919C85.6113 57.3279 86.9285 55.957 88.9629 55.957C91.1559 55.957 92.2249 57.4678 92.2249 59.9857H86.7078C86.7078 61.2656 87.4595 62.4546 88.9836 62.4546C90.3836 62.4546 90.9008 61.5384 91.0249 61.0488L91.018 61.0558ZM86.7078 59.0135H91.1284C91.1284 57.8734 90.2801 56.9292 88.9629 56.9292C87.6457 56.9292 86.7009 57.8734 86.7009 59.0135H86.7078Z" fill="white"/>
<path d="M94.825 53.3125V63.2442H93.7285V53.3125H94.825Z" fill="white"/>
<path d="M96.5234 62.5631C96.5234 62.1015 96.8545 61.8008 97.2751 61.8008C97.6958 61.8008 98.0268 62.1085 98.0268 62.5631C98.0268 63.0178 97.6958 63.3255 97.2751 63.3255C96.8545 63.3255 96.5234 63.0318 96.5234 62.5631Z" fill="white"/>
<path d="M103.027 53.3125H106.572C109.268 53.3125 110.924 55.089 110.924 58.2854C110.924 61.4817 109.268 63.2442 106.572 63.2442H103.027V53.3125ZM104.255 62.1322H106.572C109.062 62.1322 109.696 60.2297 109.696 58.2854C109.696 56.341 109.069 54.4246 106.572 54.4246H104.255V62.1322Z" fill="white"/>
<path d="M117.563 61.0558H118.659C118.301 62.3777 117.301 63.4268 115.563 63.4268C113.439 63.4268 112.156 61.9161 112.156 59.6919C112.156 57.3279 113.473 55.957 115.515 55.957C117.708 55.957 118.77 57.4678 118.77 59.9857H113.253C113.253 61.2656 114.004 62.4546 115.529 62.4546C116.928 62.4546 117.446 61.5384 117.57 61.0488L117.563 61.0558ZM113.246 59.0135H117.666C117.666 57.8734 116.818 56.9292 115.501 56.9292C114.184 56.9292 113.239 57.8734 113.239 59.0135H113.246Z" fill="white"/>
<path d="M125.667 61.2936C125.667 62.5875 124.502 63.4338 122.916 63.4338C120.778 63.4338 119.792 62.4056 119.723 60.8809H120.819C120.888 61.6713 121.164 62.4616 122.916 62.4616C124.109 62.4616 124.571 61.8391 124.571 61.3635C124.571 60.3354 123.654 60.2794 122.654 60.0276C121.585 59.7619 119.999 59.636 119.999 57.9714C119.999 56.8593 120.971 55.957 122.612 55.957C124.35 55.957 125.281 56.9572 125.391 58.1812H124.295C124.185 57.6426 123.923 56.9292 122.612 56.9292C121.626 56.9292 121.095 57.3349 121.095 57.8874C121.095 58.7197 122.04 58.7897 123.012 59.0275C124.26 59.3352 125.667 59.538 125.667 61.2936Z" fill="white"/>
<path d="M127.115 54.0902C127.115 53.6566 127.501 53.4258 127.798 53.4258C128.095 53.4258 128.481 53.6636 128.481 54.0902C128.481 54.5169 128.108 54.7547 127.798 54.7547C127.488 54.7547 127.115 54.5169 127.115 54.0902ZM128.35 56.1325V63.2176H127.253V56.1325H128.35Z" fill="white"/>
<path d="M136.379 56.1615V62.8549C136.379 64.7434 135.2 65.7015 133.282 65.7015C131.365 65.7015 130.227 64.6734 130.117 63.4634H131.214C131.351 64.1838 131.924 64.7294 133.227 64.7294C134.531 64.7294 135.282 64.1628 135.282 62.8409V61.7708H135.255C134.841 62.3793 134.186 62.8829 133.034 62.8829C131.31 62.8829 129.91 61.7568 129.91 59.4278C129.91 57.0987 131.31 55.9727 133.034 55.9727C134.186 55.9727 134.841 56.4972 135.255 57.0428H135.282V56.1685H136.379V56.1615ZM135.282 59.4208C135.282 57.7562 134.476 56.9379 133.172 56.9379C131.738 56.9379 131.007 58.036 131.007 59.4208C131.007 60.8056 131.731 61.9037 133.172 61.9037C134.476 61.9037 135.282 61.0854 135.282 59.4208Z" fill="white"/>
<path d="M144.004 58.2931V63.238H142.907V58.5728C142.907 57.6566 142.48 56.9362 141.39 56.9362C140.155 56.9362 139.335 57.7266 139.335 58.8246V63.238H138.238V56.1529H139.335V56.9992H139.362C139.735 56.5026 140.473 55.957 141.659 55.957C142.935 55.957 143.997 56.6634 143.997 58.2861L144.004 58.2931Z" fill="white"/>
<path d="M150.803 61.0558H151.9C151.541 62.3777 150.541 63.4268 148.803 63.4268C146.679 63.4268 145.396 61.9161 145.396 59.6919C145.396 57.3279 146.714 55.957 148.755 55.957C150.948 55.957 152.01 57.4678 152.01 59.9857H146.493C146.493 61.2656 147.245 62.4546 148.769 62.4546C150.169 62.4546 150.686 61.5384 150.81 61.0488L150.803 61.0558ZM146.493 59.0135H150.914C150.914 57.8734 150.065 56.9292 148.748 56.9292C147.431 56.9292 146.486 57.8734 146.486 59.0135H146.493Z" fill="white"/>
<path d="M159.537 53.3125V63.2442H158.441V62.37H158.413C157.999 62.9085 157.344 63.4401 156.22 63.4401C154.468 63.4401 153.068 62.0342 153.068 59.7052C153.068 57.3761 154.468 55.9703 156.22 55.9703C157.344 55.9703 157.999 56.4669 158.413 57.0824H158.441V53.3195H159.537V53.3125ZM158.441 59.6982C158.441 58.0336 157.634 56.9355 156.33 56.9355C154.896 56.9355 154.165 58.3133 154.165 59.6982C154.165 61.083 154.889 62.4609 156.33 62.4609C157.634 62.4609 158.441 61.3628 158.441 59.6982Z" fill="white"/>
<path d="M166.127 57.1292V61.3886C166.127 62.193 166.568 62.3328 167.499 62.2629V63.2351C167.251 63.2911 166.968 63.319 166.679 63.319C165.748 63.319 165.037 62.9413 165.037 61.5005V57.1292H164.01V56.157H165.037V53.793H166.134V56.157H167.506V57.1292H166.134H166.127Z" fill="white"/>
<path d="M171.95 63.4268C169.812 63.4268 168.529 61.9021 168.529 59.6919C168.529 57.4818 169.819 55.957 171.95 55.957C174.081 55.957 175.357 57.4818 175.357 59.6919C175.357 61.9021 174.067 63.4268 171.95 63.4268ZM171.95 62.4546C173.508 62.4546 174.267 61.2027 174.267 59.6919C174.267 58.1812 173.515 56.9292 171.95 56.9292C170.384 56.9292 169.626 58.1812 169.626 59.6919C169.626 61.2027 170.378 62.4546 171.95 62.4546Z" fill="white"/>
<path d="M181.274 53.3125V62.1322H186.404V63.2442H180.039V53.3125H181.274Z" fill="white"/>
<path d="M190.659 56.9292C189.328 56.9292 188.893 57.3209 188.824 58.349H187.728C187.797 56.9852 188.631 55.957 190.659 55.957C191.99 55.957 193.176 56.4816 193.176 58.1952V61.6363C193.176 62.1888 193.272 62.4966 193.969 62.4126V63.189C193.679 63.2869 193.534 63.3009 193.327 63.3009C192.672 63.3009 192.272 63.1191 192.079 62.3427H192.052C191.617 63.0072 190.831 63.4268 189.686 63.4268C188.279 63.4268 187.383 62.6085 187.383 61.4125C187.383 59.8038 188.562 59.3842 190.369 59.0415C191.548 58.8176 192.079 58.6638 192.079 57.9574C192.079 57.4048 191.776 56.9292 190.659 56.9292ZM192.086 60.4962V59.3142C191.879 59.524 191.21 59.7199 190.472 59.8668C189.114 60.1605 188.486 60.5032 188.486 61.3495C188.486 62.042 188.9 62.4476 189.803 62.4476C191.107 62.4476 192.093 61.8531 192.093 60.4892L192.086 60.4962Z" fill="white"/>
<path d="M200.638 61.2936C200.638 62.5875 199.473 63.4338 197.886 63.4338C195.748 63.4338 194.762 62.4056 194.693 60.8809H195.79C195.859 61.6713 196.135 62.4616 197.886 62.4616C199.079 62.4616 199.541 61.8391 199.541 61.3635C199.541 60.3354 198.624 60.2794 197.624 60.0276C196.555 59.7619 194.969 59.636 194.969 57.9714C194.969 56.8593 195.942 55.957 197.583 55.957C199.321 55.957 200.252 56.9572 200.362 58.1812H199.266C199.155 57.6426 198.893 56.9292 197.583 56.9292C196.597 56.9292 196.066 57.3349 196.066 57.8874C196.066 58.7197 197.011 58.7897 197.983 59.0275C199.231 59.3352 200.638 59.538 200.638 61.2936Z" fill="white"/>
<path d="M203.59 57.1292V61.3886C203.59 62.193 204.031 62.3328 204.962 62.2629V63.2351C204.714 63.2911 204.431 63.319 204.142 63.319C203.211 63.319 202.5 62.9413 202.5 61.5005V57.1292H201.473V56.157H202.5V53.793H203.597V56.157H204.969V57.1292H203.597H203.59Z" fill="white"/>
<path d="M206.428 62.5631C206.428 62.1015 206.759 61.8008 207.179 61.8008C207.6 61.8008 207.931 62.1085 207.931 62.5631C207.931 63.0178 207.6 63.3255 207.179 63.3255C206.759 63.3255 206.428 63.0318 206.428 62.5631Z" fill="white"/>
</svg>
