<svg width="53" height="62" viewBox="0 0 53 62" fill="none" xmlns="http://www.w3.org/2000/svg">
<g id="Group 2147203282">
<path id="Vector" d="M24.2277 52.0587C23.8363 51.827 23.7042 51.3233 23.938 50.9354C24.1692 50.5451 24.6774 50.4141 25.0713 50.6458C29.9424 53.4993 37.1817 56.8967 42.843 55.5896C44.3854 55.2345 44.2609 53.6857 44.1617 52.4516C44.0398 50.9657 43.9407 49.7417 45.4628 49.5528C46.2378 49.4571 46.3826 48.7242 46.1463 48.1702L46.1488 48.1677C46.0523 47.9259 45.8668 47.7294 45.6305 47.6161L44.2507 47.2912H44.2532C43.8086 47.1829 43.5366 46.7422 43.6408 46.3014C43.745 45.8632 44.1897 45.5887 44.6344 45.692L46.0624 46.0319C46.7993 46.2057 47.5591 45.7499 47.3533 45.1505L47.3558 45.148C47.3151 45.0346 47.3024 44.9137 47.3177 44.7928L47.5362 42.9543C47.5464 42.8586 47.5743 42.7654 47.6175 42.6773C48.0673 41.7001 48.9998 41.4533 49.9451 41.204C50.4609 41.0705 50.9844 40.9319 51.2105 40.6826C51.6781 40.1563 50.7734 38.7585 49.7037 37.1114C49.0938 36.2022 48.5348 35.2628 48.0241 34.2957C47.6658 33.5704 47.4574 32.7821 47.4117 31.9762C47.371 31.2609 47.4117 30.5431 47.5286 29.838C47.5311 28.4579 47.8132 27.2766 48.0825 26.1635C48.2807 25.3324 48.4688 24.5366 48.5043 23.7785C48.6949 19.8094 46.9924 15.3867 44.8682 12.1076C41.8444 7.4383 36.7089 4.4488 31.4542 2.84987C25.7013 1.10206 19.5825 1.1902 14.3655 3.45934C9.72559 5.48167 5.79448 9.24433 3.47999 14.9942C-0.618686 25.1636 2.74564 35.9906 7.98524 45.0349C8.52902 45.9692 8.7501 46.0247 8.78061 47.4249C8.89242 52.2982 5.90162 55.7336 5.15712 59.8586L28.0164 60.0525C28.2883 59.7301 28.6161 59.0224 28.9286 58.2014V58.1989C29.3301 57.1462 29.6427 56.0607 29.8637 54.9576C27.9299 54.0989 26.0496 53.1316 24.2277 52.0587ZM33.2378 56.2622C32.6279 56.0607 32.0206 55.8391 31.4184 55.6049C31.083 57.1714 30.0361 60.7224 28.791 61.5536V61.551C28.6512 61.6442 28.4886 61.6921 28.3209 61.6895L4.22433 61.4881C3.99056 61.4906 3.76695 61.3949 3.60941 61.2261C3.45186 61.0549 3.37309 60.8282 3.39342 60.5965C3.83302 55.7963 7.23802 52.1821 7.13127 47.4575C7.11348 46.6088 6.97627 46.5735 6.557 45.8482C1.05571 36.3584 -2.35943 25.0756 1.94761 14.3872C4.44033 8.20178 8.68616 4.14693 13.71 1.95871C19.2926 -0.471611 25.823 -0.574896 31.939 1.28625C37.5572 2.99628 43.0177 6.21994 46.263 11.2242C48.5703 14.7878 50.3643 19.5354 50.1559 23.857C50.0593 25.8919 49.1827 27.6272 49.1827 29.8813C49.1827 29.9241 49.1801 29.9669 49.1725 30.0072C48.9845 31.1909 48.9489 32.4577 49.5054 33.5683C49.9882 34.48 50.5193 35.3691 51.0961 36.2253C52.5292 38.4391 53.7438 40.3154 52.4504 41.7685C51.8965 42.3906 51.1265 42.5921 50.3643 42.7935C49.8484 42.9295 49.3377 43.063 49.1598 43.2998L48.9794 44.8235V44.8209C49.0632 45.1559 49.0658 45.5085 48.9845 45.8485C48.8015 46.5537 48.3009 47.138 47.6301 47.4376C48.3543 48.9916 47.5996 50.9434 45.6609 51.1826C45.6075 51.1902 45.7574 51.6939 45.8108 52.326C45.9607 54.1771 46.1487 56.5117 43.2113 57.1867C40.0782 57.912 36.5892 57.3655 33.2352 56.2624L33.2378 56.2622Z" fill="black"/>
<path id="Vector_2" d="M38.5569 28.208C38.5569 28.208 38.5625 28.197 38.5682 28.1915C39.6423 27.262 40.2811 25.9198 40.2811 24.4952C40.2811 22.8341 39.4331 21.3105 38.0368 20.3973C38.0481 20.3808 38.0538 20.3588 38.0651 20.3423C38.1046 20.2708 38.1385 20.1993 38.1781 20.1277C38.229 20.0287 38.2742 19.9297 38.3138 19.8307C38.3251 19.7977 38.3477 19.7647 38.359 19.7262C38.3647 19.7097 38.359 19.6932 38.3647 19.6767C38.5004 19.2807 38.5851 18.8681 38.5851 18.4446C38.5851 16.4919 37.0871 14.8747 35.148 14.6272C35.1819 14.4347 35.1933 14.2422 35.1933 14.0442C35.1933 11.921 33.4182 10.1937 31.2359 10.1937C31.1115 10.1937 30.9815 10.1992 30.8571 10.2102C30.7949 10.2157 30.7384 10.2267 30.6818 10.2322C30.631 10.2377 30.5801 10.2432 30.5292 10.2542C30.06 8.6151 28.5223 7.44348 26.7133 7.44348C25.2717 7.44348 24.011 8.19703 23.3214 9.31912C22.6317 8.19703 21.371 7.44348 19.9295 7.44348C18.1205 7.44348 16.5828 8.61506 16.1135 10.2542C16.0627 10.2432 16.0118 10.2432 15.9609 10.2322C15.9044 10.2267 15.8422 10.2157 15.7857 10.2102C15.6613 10.1992 15.5369 10.1937 15.4069 10.1937C13.2248 10.1937 11.4495 11.9208 11.4495 14.0442C11.4495 14.2422 11.4664 14.4347 11.4947 14.6272C9.55566 14.8747 8.05758 16.4919 8.05758 18.4446C8.05758 18.8681 8.13673 19.2862 8.27806 19.6767C8.27806 19.6932 8.27806 19.7097 8.28371 19.7262C8.29502 19.7592 8.31763 19.7922 8.32894 19.8307C8.36851 19.9297 8.41374 20.0287 8.46461 20.1277C8.49853 20.1992 8.53245 20.2708 8.57768 20.3423C8.58898 20.3588 8.59464 20.3808 8.60594 20.3973C7.2096 21.3158 6.36165 22.834 6.36165 24.4952C6.36165 25.9198 7.00044 27.262 8.07456 28.1915C8.07456 28.1915 8.08022 28.2025 8.08587 28.208C8.21589 28.318 8.34592 28.417 8.48725 28.516C8.49291 28.516 8.49856 28.527 8.50421 28.5325C8.21025 29.1651 8.0576 29.8527 8.0576 30.5512C8.0576 33.1804 10.1776 35.3367 12.8403 35.4905C13.5639 37.7842 15.7234 39.3519 18.2333 39.3519C20.472 39.3519 22.4052 38.0758 23.321 36.2332C24.2368 38.0758 26.1702 39.3519 28.4086 39.3519C30.9186 39.3519 33.0726 37.7843 33.8017 35.4905C36.4643 35.3365 38.5843 33.1803 38.5843 30.5512C38.5843 29.8581 38.4317 29.1706 38.1377 28.5325C38.1434 28.5325 38.149 28.5215 38.1547 28.516C38.2904 28.4225 38.426 28.318 38.5561 28.208H38.5569ZM23.491 29.9242C23.4289 29.9847 23.3667 29.9957 23.3215 29.9957C23.2593 29.9957 23.1971 29.9682 23.1462 29.9242L17.0013 23.8408C15.6276 22.4821 15.6276 20.2708 17.0013 18.9124C17.6628 18.2578 18.539 17.9003 19.4718 17.9003H19.4831C20.4158 17.9003 21.2921 18.2578 21.9535 18.9124L22.9145 19.8639C23.0163 19.9629 23.1576 20.0234 23.3159 20.0234C23.4459 20.0234 23.5533 19.9739 23.6494 19.9079C23.6721 19.8914 23.7003 19.8804 23.7173 19.8639L24.6783 18.9124C25.3397 18.2578 26.2216 17.8948 27.1544 17.8948C28.0872 17.8948 28.9691 18.2578 29.6305 18.9124C30.2976 19.5724 30.6594 20.447 30.6594 21.3766C30.6594 22.3061 30.2976 23.1807 29.6305 23.8408L23.4857 29.9242H23.491ZM18.2279 38.2465C16.1306 38.2465 14.2821 36.8053 13.824 34.8197C13.7675 34.5666 13.5357 34.3906 13.2701 34.3906H13.14C10.9579 34.3906 9.18263 32.6635 9.18263 30.5401C9.18263 30.0286 9.29004 29.5226 9.49356 29.055C10.1097 29.3025 10.7712 29.44 11.4439 29.44C13.2529 29.44 14.9432 28.494 15.8478 26.9649C16.006 26.7008 15.9099 26.3653 15.6442 26.2113C15.3729 26.0573 15.0281 26.1508 14.8698 26.4148C14.1631 27.6029 12.8516 28.34 11.4439 28.34C10.7486 28.34 10.0702 28.1585 9.47662 27.8285C9.34095 27.7515 9.20527 27.669 9.08089 27.5755C9.06393 27.5645 9.04697 27.548 9.03001 27.5369C8.06899 26.8109 7.4867 25.6888 7.4867 24.4897C7.4867 23.1641 8.18205 21.965 9.31833 21.2555C10.0363 21.9045 10.986 22.2895 12.0092 22.2895C12.3202 22.2895 12.5746 22.042 12.5746 21.7395C12.5746 21.437 12.3202 21.1895 12.0092 21.1895C11.1443 21.1895 10.3472 20.7989 9.82145 20.1719C9.74796 20.0839 9.68012 19.9904 9.61794 19.8914L9.5501 19.7924C9.48791 19.6823 9.43139 19.5668 9.3805 19.4458C9.3692 19.4238 9.35789 19.4018 9.34659 19.3743C9.23352 19.0773 9.17699 18.7638 9.17699 18.4393C9.17699 16.9211 10.4433 15.689 12.0036 15.689C12.0545 15.689 12.1053 15.689 12.1619 15.7C12.3541 15.7165 12.5406 15.634 12.6593 15.4855C12.778 15.337 12.8063 15.139 12.7385 14.963C12.6254 14.666 12.5689 14.3524 12.5689 14.0389C12.5689 12.5208 13.8352 11.2887 15.3955 11.2887C15.5764 11.2887 15.746 11.3107 15.9156 11.3382C15.9947 11.3547 16.0739 11.3767 16.153 11.3987C17.3401 11.7232 18.2221 12.7738 18.2221 14.0334C18.2221 14.3359 18.4765 14.5835 18.7874 14.5835C19.0983 14.5835 19.3527 14.3359 19.3527 14.0334C19.3527 12.5373 18.4708 11.2392 17.1875 10.6066C17.4985 9.40203 18.6065 8.53297 19.918 8.53297C21.4783 8.53297 22.7446 9.76507 22.7446 11.2832V18.1203C21.8684 17.2567 20.7095 16.7837 19.4771 16.7837H19.4601C18.2221 16.7837 17.0575 17.2622 16.1869 18.1258C14.3836 19.9079 14.3836 22.812 16.1869 24.5999L22.3318 30.6833C22.4505 30.8043 22.5918 30.8923 22.7445 30.9638V33.8351C22.7445 36.2607 20.715 38.2354 18.2219 38.2354L18.2279 38.2465ZM37.4487 30.5458C37.4487 32.669 35.6736 34.3963 33.4688 34.3963H33.3671C33.1014 34.3963 32.8752 34.5723 32.8131 34.8254C32.3552 36.811 30.5009 38.2522 28.4092 38.2522C25.9162 38.2522 23.8867 36.2775 23.8867 33.8518V30.9806C24.0393 30.9146 24.1807 30.8211 24.2994 30.7001L30.4442 24.6167C31.3205 23.7531 31.801 22.6035 31.7953 21.3824C31.7953 20.1613 31.3148 19.0117 30.4442 18.1427C29.568 17.2736 28.4034 16.8006 27.1597 16.8006C25.916 16.8006 24.7572 17.2736 23.8809 18.1372V11.3001C23.8809 9.78197 25.1472 8.54987 26.7075 8.54987C28.019 8.54987 29.127 9.41895 29.438 10.6235C28.1547 11.2616 27.2728 12.5597 27.2728 14.0503C27.2728 14.3528 27.5272 14.6004 27.8381 14.6004C28.149 14.6004 28.4034 14.3528 28.4034 14.0503C28.4034 12.7907 29.2853 11.7401 30.4725 11.4156C30.5517 11.3936 30.6308 11.3661 30.7099 11.3551C30.8795 11.3221 31.0548 11.3056 31.23 11.3056C32.7903 11.3056 34.0566 12.5377 34.0566 14.0558C34.0566 14.3693 34.0001 14.6773 33.887 14.9799C33.8192 15.1559 33.8531 15.3539 33.9662 15.5024C34.0849 15.6509 34.2714 15.7334 34.4636 15.7169C34.5145 15.7169 34.5654 15.7059 34.6219 15.7059C36.1822 15.7059 37.4485 16.938 37.4485 18.4562C37.4485 18.7752 37.392 19.0942 37.2789 19.3912C37.2676 19.4132 37.2563 19.4352 37.245 19.4627C37.1941 19.5837 37.1432 19.6992 37.0754 19.8092L37.0076 19.9083C36.9454 20.0073 36.8775 20.1008 36.8041 20.1888C36.2783 20.8158 35.4812 21.2064 34.6163 21.2064C34.3054 21.2064 34.051 21.4539 34.051 21.7564C34.051 22.0589 34.3054 22.3064 34.6163 22.3064C35.6338 22.3064 36.5892 21.9214 37.3072 21.2724C38.4435 21.9764 39.1388 23.181 39.1388 24.5066C39.1388 25.7057 38.5565 26.8278 37.5955 27.5538C37.5785 27.5648 37.5616 27.5813 37.5446 27.5923C37.4203 27.6859 37.2846 27.7684 37.1489 27.8454C36.5553 28.1809 35.8769 28.3569 35.1816 28.3569C33.774 28.3569 32.4568 27.6198 31.7557 26.4317C31.5975 26.1677 31.2526 26.0797 30.9813 26.2282C30.7099 26.3822 30.6195 26.7177 30.7778 26.9818C31.6823 28.5109 33.3726 29.4569 35.1816 29.4569C35.86 29.4569 36.5214 29.3194 37.132 29.0719C37.3355 29.5394 37.4429 30.0455 37.4429 30.557L37.4487 30.5458Z" fill="black"/>
<path id="Vector (Stroke)" d="M35.1917 14.0457C35.1917 11.9888 33.5256 10.3037 31.4373 10.2005L31.2344 10.1953C31.11 10.1953 30.9799 10.2009 30.8555 10.2119L30.6806 10.2337C30.6297 10.2392 30.5783 10.2445 30.5274 10.2555C30.0874 8.71886 28.7086 7.59301 27.0472 7.45836L26.7119 7.44486C25.2703 7.44486 24.0094 8.19864 23.3197 9.32073C22.63 8.19864 21.3691 7.44486 19.9276 7.44486C18.1187 7.44497 16.5813 8.61652 16.112 10.2555L15.9588 10.2337C15.9024 10.2282 15.8403 10.2174 15.7839 10.2119C15.7217 10.2064 15.6595 10.2022 15.5965 10.1995L15.405 10.1953C13.223 10.1954 11.4477 11.9224 11.4477 14.0457L11.4601 14.3397C11.4679 14.4364 11.4791 14.5324 11.4932 14.6284C9.55433 14.8759 8.05575 16.493 8.05554 18.4456C8.05554 18.8691 8.13469 19.288 8.27602 19.6785L8.28223 19.7273C8.29354 19.7603 8.31647 19.7937 8.32778 19.8322C8.36733 19.9311 8.41256 20.0304 8.46338 20.1293C8.49723 20.2006 8.53111 20.2719 8.57621 20.3433L8.60416 20.3983C7.20782 21.3169 6.35998 22.8357 6.35998 24.497L6.36723 24.7629C6.44139 26.0875 7.0662 27.3212 8.07314 28.1926C8.07314 28.1926 8.07887 28.2037 8.08452 28.2092C8.21446 28.3192 8.34389 28.4188 8.48512 28.5177L8.50272 28.5343C8.20885 29.1668 8.05555 29.8541 8.05554 30.5525C8.05554 33.1817 10.1762 35.3376 12.8389 35.4915C13.5399 37.7134 15.588 39.2549 17.997 39.3491L18.232 39.3533C20.4705 39.3532 22.404 38.0767 23.3197 36.2341C24.1783 37.9617 25.931 39.1919 27.9913 39.3388L28.4074 39.3533C30.9172 39.3531 33.0715 37.7851 33.8005 35.4915C36.3797 35.342 38.4498 33.3144 38.5766 30.7976L38.5828 30.5525C38.5828 29.8595 38.4296 29.1723 38.1357 28.5343C38.1413 28.5343 38.1476 28.5232 38.1532 28.5177C38.2889 28.4242 38.4249 28.3192 38.5549 28.2092L38.5663 28.1926C39.5732 27.3212 40.198 26.0875 40.2722 24.7629L40.2794 24.497C40.2794 22.8358 39.4315 21.3115 38.0352 20.3983C38.0464 20.3818 38.052 20.3597 38.0632 20.3433L38.176 20.1293L38.3116 19.8322C38.3229 19.7992 38.3459 19.7658 38.3572 19.7273C38.3627 19.711 38.3579 19.6949 38.3634 19.6785C38.4652 19.3814 38.5381 19.0747 38.5683 18.7613L38.5839 18.4456C38.5837 16.4931 37.0851 14.8759 35.1462 14.6284C35.1631 14.532 35.1743 14.4357 35.1814 14.3386L35.1917 14.0457ZM23.8849 33.8535V30.9815C24.0375 30.9155 24.1792 30.822 24.2979 30.701L30.4425 24.6185C31.3187 23.755 31.7989 22.605 31.7934 21.384C31.7934 20.163 31.313 19.0134 30.4425 18.1444C29.6209 17.3295 28.546 16.8626 27.3899 16.8076L27.158 16.8024C25.9145 16.8024 24.7559 17.2749 23.8797 18.1381V11.3015C23.8797 9.78344 25.1455 8.55116 26.7056 8.55106C28.0172 8.55106 29.1254 9.42075 29.4363 10.6253C28.1531 11.2634 27.2708 12.5614 27.2708 14.0519L27.2822 14.162C27.335 14.4121 27.5641 14.6012 27.836 14.6014C28.1081 14.6014 28.3369 14.4121 28.3898 14.162L28.4022 14.0519C28.4022 12.7925 29.2834 11.7414 30.4704 11.4168C30.51 11.4058 30.5499 11.3935 30.5895 11.3825L30.7085 11.3566C30.878 11.3236 31.0531 11.3067 31.2282 11.3067C32.7884 11.3067 34.0551 12.539 34.0551 14.0571L34.0448 14.2908C34.0236 14.5241 33.9702 14.7545 33.8854 14.9816C33.8177 15.1575 33.8511 15.3556 33.964 15.504C34.0828 15.6525 34.2697 15.7345 34.4619 15.718C34.5128 15.718 34.5638 15.7076 34.6203 15.7076L34.9091 15.7211C36.3339 15.862 37.4473 17.0348 37.4473 18.4581L37.4359 18.6969C37.4147 18.935 37.3623 19.1703 37.2775 19.3929C37.2662 19.4148 37.2547 19.4371 37.2434 19.4645L37.1647 19.6411C37.1371 19.6989 37.1075 19.7554 37.0736 19.8104L37.0063 19.9101L36.908 20.0545C36.8742 20.1011 36.839 20.1467 36.8024 20.1906L36.701 20.3048C36.177 20.8645 35.4251 21.2075 34.6141 21.2075C34.3034 21.2077 34.0489 21.4556 34.0489 21.758L34.0613 21.8681C34.1142 22.118 34.3422 22.3072 34.6141 22.3074C35.6316 22.3074 36.5875 21.9229 37.3055 21.2739C38.4417 21.978 39.1366 23.1828 39.1366 24.5084L39.1304 24.7317C39.063 25.8455 38.495 26.8742 37.5943 27.5549L37.5425 27.5933C37.4182 27.6868 37.2828 27.7697 37.1471 27.8467C36.5537 28.1822 35.8755 28.3577 35.1803 28.3578V28.0389C35.8222 28.0388 36.4462 27.8762 36.9908 27.5684C37.1216 27.4941 37.2438 27.4201 37.3521 27.3388L37.3614 27.3315L37.3655 27.3284C37.3663 27.3278 37.3675 27.3273 37.3686 27.3264C37.3723 27.3234 37.3793 27.3169 37.3872 27.3108C37.3925 27.3067 37.3991 27.3017 37.4069 27.2962C38.2891 26.6276 38.8187 25.6004 38.8188 24.5084C38.8188 23.3733 38.2614 22.3308 37.3282 21.6707C36.5782 22.2735 35.6248 22.6273 34.6141 22.6273C34.1371 22.6271 33.7312 22.2456 33.7311 21.758C33.7311 21.2702 34.1371 20.8888 34.6141 20.8886C35.3834 20.8886 36.0927 20.5412 36.5591 19.9849L36.6513 19.8665C36.681 19.8255 36.7098 19.7834 36.7372 19.7398L36.7434 19.7284L36.8065 19.6359C36.8585 19.5505 36.9012 19.4569 36.9504 19.3399C36.9613 19.3136 36.9722 19.2909 36.9815 19.2724C37.0786 19.0149 37.1284 18.7373 37.1285 18.4581C37.1285 17.1254 36.0143 16.0265 34.6203 16.0265C34.6109 16.0265 34.5991 16.0278 34.5717 16.0306C34.5493 16.033 34.5068 16.0379 34.4619 16.0379V16.0358C34.1721 16.0518 33.895 15.9266 33.7166 15.7035L33.7115 15.6972C33.5358 15.4662 33.4782 15.1522 33.5883 14.8663C33.6877 14.5994 33.7373 14.3303 33.7373 14.0571C33.7373 12.7245 32.6221 11.6256 31.2282 11.6256C31.0727 11.6256 30.9175 11.6402 30.7686 11.6692L30.7603 11.6713L30.752 11.6723C30.7007 11.6794 30.6616 11.6947 30.5553 11.7242L30.5543 11.7253C29.4928 12.0156 28.72 12.9492 28.72 14.0519C28.7199 14.5398 28.3132 14.9213 27.836 14.9213C27.359 14.9211 26.9532 14.5396 26.953 14.0519C26.953 12.5272 27.8009 11.1937 29.0523 10.4685C28.7029 9.53159 27.7866 8.86994 26.7056 8.86994C25.3118 8.87003 24.1975 9.96886 24.1975 11.3015V17.4484C25.0476 16.8207 26.0737 16.4825 27.158 16.4825C28.4837 16.4825 29.7292 16.9877 30.6661 17.9169L30.6671 17.9179C31.5963 18.8456 32.1117 20.0755 32.1122 21.382L32.107 21.6271C32.0518 22.8432 31.5438 23.9796 30.6661 24.8449L24.5215 30.9285C24.4251 31.0262 24.3166 31.1068 24.2027 31.1747V33.8535C24.2028 36.0936 26.0809 37.9344 28.4074 37.9345V38.2533C25.9922 38.2533 24.0123 36.4001 23.8911 34.0789L23.8849 33.8535ZM33.3657 34.3977L33.2674 34.406C33.0456 34.4433 32.8663 34.6056 32.8119 34.8267L32.7643 35.0116C32.2372 36.9012 30.4337 38.2533 28.4074 38.2533V37.9345C30.3577 37.9345 32.0782 36.5894 32.5014 34.755L32.5024 34.7509C32.6004 34.3519 32.9573 34.0789 33.3657 34.0789V34.3977ZM22.4243 33.8368V31.1549C22.3138 31.0892 22.2048 31.0115 22.1065 30.9119L15.9619 24.8283C14.0329 22.9158 14.0322 19.8076 15.9619 17.9003L16.14 17.732C17.0485 16.9152 18.2202 16.4659 19.4586 16.4659V16.7847C18.2207 16.7847 17.0561 17.2634 16.1855 18.1267L16.022 18.2971C14.3838 20.0893 14.4385 22.8686 16.1855 24.6008L22.3301 30.6844C22.4488 30.8054 22.5905 30.8934 22.7431 30.9649V33.8368L22.7369 34.0622C22.6157 36.3834 20.6357 38.2365 18.2206 38.2367L18.2258 38.2481C16.1941 38.2479 14.3956 36.8952 13.8689 35.0054L13.8223 34.8215C13.7728 34.6 13.5891 34.4368 13.3658 34.3998L13.2685 34.3915V34.0726C13.6708 34.0727 14.0394 34.3407 14.1318 34.7488C14.5357 36.4997 16.1165 37.8022 17.9598 37.9178H18.2206C20.547 37.9177 22.4241 36.0768 22.4243 33.8368ZM33.4672 34.0789V34.3977H33.3657V34.0789H33.4672ZM30.8276 25.9491C31.2169 25.7362 31.7109 25.8379 31.9766 26.1942L32.0263 26.269L32.0273 26.271C32.6691 27.3586 33.8812 28.0389 35.1803 28.0389V28.3578L34.9174 28.3495C33.6102 28.2642 32.4113 27.547 31.754 26.4331C31.5957 26.1691 31.2511 26.0811 30.9797 26.2295C30.7084 26.3835 30.6175 26.7196 30.7758 26.9836C31.6237 28.4169 33.1625 29.3377 34.8418 29.4473L35.1803 29.4588C35.8586 29.4587 36.5201 29.3209 37.1305 29.0734C37.334 29.5409 37.4411 30.0473 37.4411 30.5587L37.4473 30.5473C37.4472 32.6042 35.7809 34.2894 33.6721 34.3925L33.4672 34.3977V34.0789C35.5024 34.0788 37.1215 32.4907 37.1285 30.5598L37.1233 30.5587C37.1233 30.1918 37.0616 29.8275 36.9452 29.4806C36.3851 29.6712 35.79 29.7776 35.1803 29.7777C33.2634 29.7777 31.4675 28.7758 30.5036 27.1477L30.4611 27.0677C30.2704 26.6606 30.4265 26.1775 30.8234 25.9522L30.8276 25.9491ZM13.2685 34.0726V34.3915H13.1381V34.0726H13.2685ZM9.18073 30.5411C9.1808 30.0298 9.28891 29.5242 9.49231 29.0568C10.0315 29.2733 10.6053 29.4052 11.191 29.4349L11.4425 29.4411C13.2514 29.441 14.9415 28.495 15.846 26.9659C16.0041 26.7019 15.9077 26.3669 15.6421 26.2129C15.3708 26.0591 15.026 26.1525 14.8678 26.4165C14.1612 27.6043 12.85 28.3411 11.4425 28.3411V28.0223C12.741 28.0222 13.9478 27.3415 14.5955 26.2524V26.2513C14.8269 25.8657 15.3114 25.7151 15.7187 25.895L15.7994 25.9345L15.8015 25.9366C16.2124 26.1748 16.3734 26.7056 16.1182 27.1311C15.1543 28.7589 13.3592 29.7609 11.4425 29.761C10.8361 29.761 10.2404 29.654 9.67657 29.4629C9.56009 29.8099 9.49857 30.1742 9.49852 30.5411C9.49852 32.4789 11.1224 34.0725 13.1381 34.0726V34.3915C10.9561 34.3913 9.18073 32.6644 9.18073 30.5411ZM19.4814 17.9013C20.4142 17.9013 21.2909 18.2595 21.9523 18.914L22.9129 19.8655C22.9891 19.9396 23.0875 19.9923 23.1986 20.014L23.3145 20.0244C23.4444 20.0243 23.5518 19.9751 23.6478 19.9091L23.8269 20.1729C23.7007 20.2595 23.5312 20.3442 23.3145 20.3443C23.0741 20.3443 22.8528 20.251 22.6914 20.094L22.6893 20.0929L21.7287 19.1405C21.1275 18.5455 20.3314 18.2212 19.4814 18.2212H19.47C18.62 18.2213 17.824 18.5455 17.2227 19.1405V19.1415C15.9757 20.375 15.9755 22.3816 17.2227 23.6151L23.3135 29.6447L29.4053 23.6151C30.0117 23.0151 30.34 22.2221 30.34 21.3778C30.34 20.5335 30.0116 19.7404 29.4053 19.1405C28.8035 18.5452 28.002 18.215 27.1528 18.215C26.3036 18.215 25.5021 18.5452 24.9004 19.1405L23.9387 20.0929L23.9366 20.094C23.9142 20.1158 23.8927 20.1316 23.8776 20.1418C23.8626 20.1518 23.8488 20.1604 23.8414 20.1646C23.8312 20.1705 23.8311 20.1711 23.828 20.1729L23.6478 19.9091L23.7151 19.8655L24.6768 18.914C25.3382 18.2595 26.22 17.8961 27.1528 17.8961L27.3267 17.9003C28.1947 17.9425 29.0087 18.3003 29.6289 18.914C30.2958 19.574 30.6578 20.4484 30.6578 21.3778L30.6537 21.5513C30.6115 22.4158 30.2544 23.2237 29.6289 23.8426L23.4843 29.9251H23.4895C23.4273 29.9857 23.3649 29.9968 23.3197 29.9968C23.2575 29.9968 23.1956 29.9691 23.1448 29.9251L17.0002 23.8426C15.6694 22.5265 15.6275 20.4099 16.8749 19.0439L17.0002 18.914C17.6616 18.2596 18.5373 17.9013 19.47 17.9013H19.4814ZM38.8333 28.364L38.8344 28.363C38.835 28.3618 38.8359 28.3599 38.8364 28.3588V28.3578L38.8375 28.3567V28.3557L38.8333 28.364ZM22.4253 11.2849C22.4253 9.95218 21.3101 8.85332 19.9162 8.85332C18.8354 8.8534 17.9179 9.51407 17.5685 10.4508C18.8209 11.1716 19.6686 12.5049 19.6688 14.0343C19.6688 14.5222 19.263 14.9036 18.7858 14.9037C18.3085 14.9037 17.9028 14.5222 17.9028 14.0343C17.9026 12.9317 17.1289 11.9978 16.0675 11.7076H16.0665C15.9888 11.686 15.922 11.6675 15.8574 11.6536C15.6959 11.6276 15.5474 11.609 15.3936 11.609C13.9998 11.609 12.8855 12.7079 12.8855 14.0405C12.8855 14.3152 12.9347 14.5898 13.0335 14.8497L13.0666 14.9556C13.1279 15.2073 13.0735 15.4775 12.9062 15.6868C12.7223 15.917 12.4326 16.0449 12.133 16.0192L12.1164 16.0182L12.0998 16.0151C12.0773 16.0107 12.0547 16.0099 12.0015 16.0099C10.6078 16.0101 9.49349 17.1079 9.49335 18.4404C9.49335 18.7242 9.5425 18.9964 9.6393 19.2537L9.66104 19.3015L9.66725 19.3119L9.67139 19.3233C9.71581 19.4289 9.76512 19.5292 9.81838 19.6245L9.87842 19.7117L9.88566 19.7221C9.94036 19.8092 9.99959 19.8915 10.0637 19.9683H10.0627C10.5291 20.5246 11.2384 20.872 12.0077 20.872C12.4849 20.872 12.8907 21.2534 12.8907 21.7413C12.8904 22.229 12.4847 22.6096 12.0077 22.6097C10.9916 22.6097 10.0427 22.2568 9.29356 21.6541C8.35975 22.3185 7.80308 23.3567 7.80296 24.4907C7.80296 25.5845 8.33435 26.614 9.21903 27.2827C9.22503 27.287 9.2303 27.2909 9.23456 27.2942C9.2424 27.3002 9.24948 27.3067 9.25319 27.3097L9.25526 27.3108L9.26148 27.3149L9.26976 27.3212C9.37749 27.4021 9.49884 27.4768 9.62895 27.5507C10.1763 27.855 10.8021 28.0223 11.4425 28.0223V28.3411L11.1827 28.3328C10.6651 28.2992 10.1618 28.1658 9.70141 27.9464L9.47471 27.8301C9.33906 27.7531 9.20366 27.6702 9.07929 27.5767C9.06238 27.5657 9.04548 27.5492 9.02857 27.5382C8.12765 26.8576 7.55891 25.829 7.49139 24.7151L7.48518 24.4907C7.4853 23.1655 8.18043 21.9668 9.31634 21.2573C9.98932 21.8657 10.8663 22.2419 11.8162 22.2866L12.0077 22.2908C12.2797 22.2907 12.5086 22.1014 12.5615 21.8514L12.5729 21.7413C12.5729 21.4768 12.3783 21.2539 12.1216 21.2023L12.0077 21.1908C11.1428 21.1908 10.3452 20.8 9.81942 20.1729C9.74605 20.085 9.67862 19.9913 9.61653 19.8925L9.54821 19.7938C9.48603 19.6838 9.42932 19.5679 9.37845 19.4469C9.36721 19.425 9.35656 19.4025 9.34532 19.3752C9.26053 19.1524 9.20707 18.9204 9.18591 18.6814L9.17556 18.4404C9.1757 16.9225 10.4415 15.6902 12.0015 15.69C12.0523 15.69 12.1035 15.6904 12.1599 15.7014C12.3281 15.7158 12.4923 15.6545 12.6102 15.5393L12.6578 15.4874C12.7765 15.3389 12.8043 15.1399 12.7364 14.9639C12.6518 14.7413 12.5993 14.5094 12.5781 14.2753L12.5677 14.0405C12.5677 12.5225 13.8334 11.2902 15.3936 11.2901L15.6576 11.3046C15.744 11.3136 15.8294 11.3262 15.9143 11.3399C15.9933 11.3564 16.0724 11.3782 16.1514 11.4002C17.3383 11.7247 18.2204 12.7749 18.2206 14.0343L18.232 14.1454C18.2774 14.3596 18.4518 14.5291 18.6719 14.5734L18.7858 14.5848C19.0967 14.5848 19.351 14.3368 19.351 14.0343C19.3508 12.5384 18.4686 11.2401 17.1855 10.6077C17.4965 9.40323 18.6048 8.53453 19.9162 8.53444L20.205 8.54898C21.6298 8.68981 22.7431 9.86157 22.7431 11.2849V18.1215C21.8669 17.258 20.7076 16.7847 19.4752 16.7847V16.4659C20.5507 16.4659 21.5756 16.804 22.4253 17.4318V11.2849ZM19.4752 16.4659V16.7847H19.4586V16.4659H19.4752ZM35.5095 14.0457C35.5095 14.1514 35.506 14.2575 35.4981 14.3646C37.4342 14.7564 38.9015 16.4299 38.9017 18.4456C38.9017 18.8956 38.8128 19.3283 38.677 19.7367C38.6769 19.7386 38.6772 19.7409 38.677 19.7429C38.6754 19.7621 38.6692 19.7872 38.6605 19.8167L38.6625 19.8177C38.6619 19.8199 38.6601 19.8218 38.6594 19.8239C38.6587 19.8262 38.6592 19.8289 38.6584 19.8312L38.6563 19.8302C38.6426 19.8725 38.628 19.9075 38.6201 19.9236C38.6144 19.9352 38.6126 19.9383 38.6108 19.9423C38.6113 19.9411 38.6119 19.9388 38.6129 19.9361L38.6097 19.9434L38.6077 19.9506C38.5642 20.0594 38.5139 20.1682 38.4586 20.2758L38.4545 20.2841C38.4522 20.2883 38.4495 20.2923 38.4472 20.2965C39.7884 21.2796 40.5972 22.8213 40.5972 24.497C40.5971 25.9987 39.9316 27.4092 38.8168 28.3952L38.7495 28.5281H38.6667C38.6206 28.5655 38.574 28.6024 38.5269 28.6382C38.7728 29.2492 38.9006 29.898 38.9006 30.5525C38.9006 33.2886 36.7533 35.5278 34.0334 35.7916C33.2012 38.1106 30.9765 39.672 28.4074 39.6722C26.2551 39.6722 24.3694 38.5518 23.3187 36.8771C22.268 38.5514 20.3841 39.6721 18.232 39.6722C15.6635 39.6722 13.4328 38.1113 12.605 35.7916C9.88506 35.5279 7.73775 33.2886 7.73775 30.5525C7.73776 29.8944 7.86487 29.2455 8.1104 28.6382C8.03238 28.5791 7.95607 28.518 7.87956 28.4533L7.863 28.4388C7.85586 28.4318 7.85129 28.4227 7.8454 28.4159C6.71668 27.4291 6.0423 26.0091 6.04219 24.497C6.04219 22.821 6.85125 21.2853 8.19114 20.2986C8.18582 20.2875 8.18053 20.2768 8.17561 20.2664V20.2654C8.12237 20.161 8.07388 20.0561 8.03173 19.9506L8.02655 19.9371L8.02241 19.9226C8.02526 19.9322 8.02744 19.936 8.01931 19.9195C8.01664 19.9141 8.00963 19.8998 8.00378 19.8873C7.99742 19.8736 7.98883 19.854 7.98101 19.8312C7.96832 19.7941 7.96285 19.7582 7.96031 19.7304C7.81955 19.3234 7.73775 18.8886 7.73775 18.4456C7.73795 16.4294 9.20566 14.7549 11.1423 14.3635C11.134 14.2593 11.1299 14.1535 11.1299 14.0457C11.1299 11.737 13.0567 9.87652 15.405 9.87643C15.5442 9.87643 15.678 9.88225 15.8118 9.89408H15.8149C15.8422 9.89674 15.8696 9.90015 15.8936 9.90343C16.4858 8.26459 18.0789 7.12609 19.9276 7.12598C21.3095 7.12598 22.5392 7.76927 23.3197 8.76607C24.1002 7.76927 25.3299 7.12598 26.7119 7.12598C28.5604 7.12609 30.1525 8.2648 30.7448 9.90343C30.7692 9.90008 30.7975 9.89674 30.8276 9.89408C30.9616 9.88223 31.1011 9.87643 31.2344 9.87643C33.5829 9.87652 35.5095 11.7372 35.5095 14.0457Z" fill="black"/>
</g>
</svg>
