<svg width="42" height="42" viewBox="0 0 42 42" fill="none" xmlns="http://www.w3.org/2000/svg">
<circle cx="21" cy="21" r="21" fill="#0BB26A"/>
<path d="M25.6168 10H16.3942C12.3882 10 10 12.387 10 16.391V25.598C10 29.613 12.3882 32 16.3942 32H25.6058C29.6118 32 32 29.613 32 25.609V16.391C32.011 12.387 29.6228 10 25.6168 10ZM21.0055 25.268C18.6503 25.268 16.7354 23.354 16.7354 21C16.7354 18.646 18.6503 16.732 21.0055 16.732C23.3607 16.732 25.2756 18.646 25.2756 21C25.2756 23.354 23.3607 25.268 21.0055 25.268ZM27.5207 15.368C27.4657 15.5 27.3887 15.621 27.2896 15.731C27.1796 15.83 27.0585 15.907 26.9264 15.962C26.7944 16.017 26.6513 16.05 26.5082 16.05C26.2111 16.05 25.9359 15.94 25.7268 15.731C25.6278 15.621 25.5507 15.5 25.4957 15.368C25.4407 15.236 25.4077 15.093 25.4077 14.95C25.4077 14.807 25.4407 14.664 25.4957 14.532C25.5507 14.389 25.6278 14.279 25.7268 14.169C25.98 13.916 26.3652 13.795 26.7173 13.872C26.7944 13.883 26.8604 13.905 26.9264 13.938C26.9925 13.96 27.0585 13.993 27.1245 14.037C27.1796 14.07 27.2346 14.125 27.2896 14.169C27.3887 14.279 27.4657 14.389 27.5207 14.532C27.5758 14.664 27.6088 14.807 27.6088 14.95C27.6088 15.093 27.5758 15.236 27.5207 15.368Z" fill="black"/>
</svg>
