<svg width="20" height="20" viewBox="0 0 20 20" fill="none" xmlns="http://www.w3.org/2000/svg">
<g clip-path="url(#clip0_2775_68)">
<path d="M13.7779 19.8667H6.19894C2.84137 19.8667 0.109879 17.1352 0.109879 13.7779V6.19894C0.109879 2.84137 2.84137 0.109879 6.19894 0.109879H13.7779C17.1352 0.109879 19.8667 2.84137 19.8667 6.19894V13.7779C19.8667 17.1352 17.1352 19.8667 13.7779 19.8667ZM6.19894 1.64652C3.68872 1.64652 1.64652 3.68872 1.64652 6.19894V13.7779C1.64652 16.2879 3.68872 18.3301 6.19894 18.3301H13.7779C16.2879 18.3301 18.3301 16.2879 18.3301 13.7779V6.19894C18.3301 3.68872 16.2879 1.64652 13.7779 1.64652H6.19894Z" fill="white"/>
<path d="M10.0442 15.5794C6.99197 15.5794 4.50898 13.0962 4.50898 10.0442C4.50898 6.99219 6.99219 4.50898 10.0442 4.50898C13.0962 4.50898 15.5794 6.99219 15.5794 10.0442C15.5794 13.0962 13.0964 15.5794 10.0442 15.5794ZM10.0442 6.04562C7.83932 6.04562 6.04562 7.83932 6.04562 10.0442C6.04562 12.2491 7.83932 14.0428 10.0442 14.0428C12.2491 14.0428 14.0428 12.2491 14.0428 10.0442C14.043 7.83932 12.2493 6.04562 10.0442 6.04562Z" fill="white"/>
<path d="M15.5987 5.56017C16.1924 5.56017 16.6737 5.07888 16.6737 4.48518C16.6737 3.89147 16.1924 3.41018 15.5987 3.41018C15.005 3.41018 14.5237 3.89147 14.5237 4.48518C14.5237 5.07888 15.005 5.56017 15.5987 5.56017Z" fill="white"/>
</g>
<defs>
<clipPath id="clip0_2775_68">
<rect width="19.9072" height="19.9072" fill="white" transform="scale(1.00461)"/>
</clipPath>
</defs>
</svg>
