<svg width="23" height="23" viewBox="0 0 23 23" fill="none" xmlns="http://www.w3.org/2000/svg">
<g id="Group 2147203301">
<path id="Vector" d="M0.37821 7.62297H5.14595V22.9584H0.37821V7.62297ZM2.76221 0C4.28604 0 5.52442 1.23838 5.52442 2.76476C5.52442 4.28961 4.28604 5.528 2.76221 5.528C1.2348 5.528 0 4.28961 0 2.76476C0 1.23838 1.2348 0 2.76221 0Z" fill="black"/>
<path id="Vector_2" d="M8.13626 7.62317H12.708V9.72019H12.7732C13.4095 8.51401 14.9647 7.24343 17.2828 7.24343C22.1093 7.24343 23.0002 10.4186 23.0002 14.5477V22.9586H18.236V15.5009C18.236 13.7221 18.2051 11.4347 15.7592 11.4347C13.2789 11.4347 12.9004 13.3735 12.9004 15.3731V22.9586H8.13626V7.62317Z" fill="black"/>
</g>
</svg>
