<svg width="30" height="28" viewBox="0 0 30 28" fill="none" xmlns="http://www.w3.org/2000/svg">
<path d="M3.983 7.206H3.94C1.657 7.206 0 5.692 0 3.606C0 1.517 1.692 0 4.023 0C6.315 0 7.951 1.476 8 3.589C8 5.69 6.311 7.206 3.983 7.206ZM4.023 1C2.243 1 1 2.072 1 3.606C1 5.137 2.209 6.207 3.94 6.207H3.983C5.76 6.206 7 5.135 7 3.601C6.963 2.025 5.795 1 4.023 1ZM6.5 27.331H1.5C1.224 27.331 1 27.107 1 26.831V8.831C1 8.555 1.224 8.331 1.5 8.331H6.5C6.776 8.331 7 8.555 7 8.831V26.831C7 27.107 6.776 27.331 6.5 27.331ZM2 26.331H6V9.331H2V26.331ZM29.5 27.331H23.5C23.224 27.331 23 27.107 23 26.831V17.331C23 15.677 21.654 14.331 20 14.331C18.346 14.331 17 15.677 17 17.331V26.831C17 27.107 16.776 27.331 16.5 27.331H10.5C10.224 27.331 10 27.107 10 26.831V8.831C10 8.555 10.224 8.331 10.5 8.331H16.5C16.776 8.331 17 8.555 17 8.831V11.845C17 12.121 16.776 12.345 16.5 12.345C16.224 12.345 16 12.121 16 11.845V9.331H11V26.331H16V17.331C16 15.125 17.794 13.331 20 13.331C22.206 13.331 24 15.125 24 17.331V26.331H29V15.831C29 12.247 26.084 9.331 22.5 9.331C21.116 9.331 19.778 9.737 18.629 10.504C18.4 10.656 18.089 10.596 17.936 10.366C17.783 10.136 17.844 9.826 18.075 9.673C19.388 8.795 20.918 8.331 22.5 8.331C26.636 8.331 30 11.695 30 15.831V26.831C30 27.107 29.776 27.331 29.5 27.331Z" fill="white"/>
</svg>
