<svg width="23" height="23" viewBox="0 0 23 23" fill="none" xmlns="http://www.w3.org/2000/svg">
<g clip-path="url(#clip0_2775_21)">
<path d="M0.489566 7.53187H5.10994V22.3932H0.489566V7.53187ZM2.79988 0.144531C4.2766 0.144531 5.4767 1.34463 5.4767 2.82384C5.4767 4.30155 4.2766 5.50166 2.79988 5.50166C1.31968 5.50166 0.123047 4.30155 0.123047 2.82384C0.123047 1.34463 1.31968 0.144531 2.79988 0.144531Z" fill="white"/>
<path d="M8.00781 7.53207H12.4382V9.56427H12.5014C13.118 8.39537 14.6252 7.16406 16.8716 7.16406C21.549 7.16406 22.4123 10.2411 22.4123 14.2426V22.3934H17.7954V15.1663C17.7954 13.4424 17.7654 11.2257 15.3952 11.2257C12.9915 11.2257 12.6247 13.1046 12.6247 15.0425V22.3934H8.00781V7.53207Z" fill="white"/>
</g>
<defs>
<clipPath id="clip0_2775_21">
<rect width="22.5615" height="22.5615" fill="white"/>
</clipPath>
</defs>
</svg>
