<svg width="42" height="42" viewBox="0 0 42 42" fill="none" xmlns="http://www.w3.org/2000/svg">
<circle cx="21" cy="21" r="21" fill="#0BB26A"/>
<path d="M12.3006 18.0592H16.0903V30.2487H12.3006V18.0592ZM14.1956 12C15.4068 12 16.3912 12.9843 16.3912 14.1976C16.3912 15.4097 15.4068 16.394 14.1956 16.394C12.9815 16.394 12 15.4097 12 14.1976C12 12.9843 12.9815 12 14.1956 12Z" fill="black"/>
<path d="M18.4668 18.0597H22.1007V19.7265H22.1525C22.6583 18.7677 23.8945 17.7578 25.737 17.7578C29.5735 17.7578 30.2816 20.2816 30.2816 23.5637V30.2492H26.4947V24.3214C26.4947 22.9074 26.4701 21.0893 24.526 21.0893C22.5545 21.0893 22.2537 22.6304 22.2537 24.2198V30.2492H18.4668V18.0597Z" fill="black"/>
</svg>
