<svg xmlns="http://www.w3.org/2000/svg" data-name="Layer 1" viewBox="0 0 100 125" x="0px" y="0px"><path d="m8.28,44.18l33.87,13.67,13.67,33.87c.77,1.92,2.6,3.15,4.66,3.15.03,0,.07,0,.1,0,2.11-.04,3.93-1.35,4.64-3.33L93.35,13.08c.13-.37.21-.75.26-1.14,1.08-1.56.93-3.71-.46-5.1-1.39-1.39-3.54-1.54-5.1-.46-.38.04-.76.12-1.13.25L8.46,34.78c-1.98.71-3.29,2.53-3.33,4.64s1.19,3.97,3.15,4.76Zm52.04,37.31l-10.4-25.76,30.61-30.61-20.22,56.37Zm14.56-62.03l-30.61,30.61-25.76-10.4,56.37-20.22Z"/><text x="0" y="115" fill="#000000" font-size="5px" font-weight="bold" font-family="'Helvetica Neue', Helvetica, Arial-Unicode, Arial, Sans-serif">Created by Jerry Cannary</text><text x="0" y="120" fill="#000000" font-size="5px" font-weight="bold" font-family="'Helvetica Neue', Helvetica, Arial-Unicode, Arial, Sans-serif">from the Noun Project</text></svg>