<svg width="53" height="63" viewBox="0 0 53 63" fill="none" xmlns="http://www.w3.org/2000/svg">
<path id="Vector" d="M31.1974 54.14H31.2482C31.4134 54.1373 31.576 54.1999 31.703 54.317C32.2722 54.5021 32.8743 54.6819 33.5146 54.8616C36.2916 55.5205 39.1373 55.8037 41.9832 55.6975C43.7058 55.7057 44.8034 55.7084 45.2049 54.6138C45.7156 53.2196 45.5403 50.2216 45.5021 48.2256C45.4793 46.9785 42.842 46.6299 42.123 46.325C41.5132 46.069 41.2032 45.8512 41.193 45.3556C41.1778 44.5115 41.9197 44.4734 42.7454 44.389C43.6296 44.2937 45.4158 44.1112 45.7511 43.6783H45.7486C45.7918 43.1963 45.7562 42.7116 45.6419 42.2433C45.4742 41.1268 45.304 39.9805 45.9671 39.2834C46.9605 38.2459 49.8494 38.167 50.8199 37.6877C51.0435 37.5897 51.2595 37.4753 51.4703 37.3473C51.7015 37.1023 51.417 36.8654 51.3103 36.7483H51.3077C49.9103 35.3623 48.7263 33.7448 47.799 31.9586C47.4738 31.2724 47.6923 31.7244 47.6084 31.5583C46.8208 29.9109 45.9594 28.1137 46.0738 26.1205C46.4905 18.8667 44.4808 12.6117 40.4054 8.17899C36.391 3.81407 30.7023 1.55672 24.4698 1.55672H24.4724C18.3619 1.55672 12.5031 4.1599 8.18361 8.78894C3.86689 13.418 1.44058 19.6969 1.44058 26.2432C1.44058 34.3112 5.55912 41.5134 11.6289 46.0389V46.0416C11.8678 46.2159 11.9872 46.5263 11.9313 46.8286L9.0679 61.0644L9.06535 61.0807C9.0679 61.0807 9.07552 61.0698 9.08314 61.0807C9.14666 61.146 9.22797 61.1814 9.31435 61.1814H30.2882C30.4178 61.1814 30.5219 61.0698 30.5245 60.9309V55.5313C27.9227 54.6055 25.5014 53.1732 23.3827 51.3079C23.0804 51.0411 23.0296 50.5646 23.2709 50.2323C23.5123 49.9001 23.9569 49.8375 24.2695 50.088C26.3224 51.8933 28.6721 53.2686 31.1974 54.14ZM19.0324 7.10857C19.7565 7.10584 20.4349 7.48979 20.8414 8.13516C23.2068 7.65864 25.6434 7.76211 27.9655 8.44286C28.5753 7.62867 29.6171 7.34823 30.5139 7.75667C31.4083 8.16511 31.9444 9.1617 31.8199 10.1992C33.7432 11.4163 35.4023 13.0556 36.693 15.0079C37.6458 14.7901 38.6164 15.2802 39.0686 16.2061C39.5209 17.1319 39.343 18.2646 38.6341 18.9808C38.9492 19.9093 39.1855 20.8678 39.343 21.8399C40.2957 22.0768 40.9843 22.97 41.0224 24.0183C41.0605 25.0667 40.4406 26.0116 39.5081 26.3301C39.061 31.5555 36.3779 36.2635 32.2441 39.0763C32.3915 40.0729 31.924 41.0558 31.0881 41.5161C30.2496 41.9762 29.2308 41.8074 28.5626 41.0967C28.5219 41.0532 28.4813 41.0041 28.4432 40.9578C26.1641 41.7094 23.7581 41.9027 21.4003 41.5188C20.8845 42.4092 19.881 42.8204 18.9434 42.529C18.0084 42.2349 17.3656 41.3118 17.3758 40.2662C15.9479 39.5882 14.6216 38.6842 13.4427 37.5895C12.5635 38.047 11.5091 37.821 10.8612 37.0395C10.2159 36.2553 10.1346 35.1062 10.6631 34.2294L9.84748 32.7808C8.93791 32.8652 8.07655 32.3315 7.69039 31.4465C7.30419 30.5589 7.47697 29.5078 8.11978 28.8162C8.19854 28.729 8.28493 28.6501 8.37639 28.5793C7.57603 24.8461 7.97749 20.933 9.51718 17.4775C11.0594 14.0221 13.6459 11.2283 16.8573 9.54824C16.8319 8.91107 17.0479 8.29294 17.4595 7.83007C17.8685 7.36989 18.4378 7.10857 19.0324 7.10857ZM21.1971 9.64364C21.1005 10.79 20.2392 11.6913 19.1645 11.7649C18.7021 13.8452 18.5014 15.9828 18.5674 18.1203C18.8748 18.2102 19.1619 18.3708 19.4059 18.5914C22.3659 16.9141 25.6155 15.9065 28.9542 15.6342C29.1295 15.0433 29.5183 14.5505 30.0366 14.2673L29.5996 12.2278C28.4283 12.1924 27.4958 11.1686 27.4882 9.91326C25.4353 9.33054 23.2882 9.23792 21.1971 9.64364ZM17.7696 11.3373L17.4063 10.9888H17.4089C14.5302 12.5191 12.2105 15.0406 10.8258 18.1478C9.44113 21.2574 9.06765 24.7728 9.76635 28.1356C9.84511 28.1411 9.92133 28.1492 10.0001 28.1629C11.5373 25.4045 13.5419 22.9783 15.9124 21.0122C15.6151 19.8957 16.1309 18.7113 17.1243 18.2429C17.0507 15.9175 17.2692 13.5947 17.7748 11.3347L17.7696 11.3373ZM19.5456 8.88668C19.3373 8.66612 19.0248 8.59805 18.7529 8.71785C18.4836 8.84039 18.3057 9.12358 18.3057 9.43668C18.3057 9.75255 18.4836 10.0357 18.7529 10.1555C19.0248 10.278 19.3373 10.21 19.5456 9.98669C19.8277 9.68444 19.8277 9.19165 19.5456 8.88668ZM31.1592 11.5852V11.5824C31.1033 11.6423 31.0423 11.6968 30.9813 11.7485C31.1693 12.4973 31.3396 13.2816 31.4666 14.0549C32.2542 14.2319 32.8869 14.8581 33.113 15.6832C33.8498 15.7622 34.5891 15.8765 35.3158 16.0318C35.359 15.961 35.4047 15.8929 35.453 15.8303C34.3046 14.1175 32.8437 12.6716 31.1592 11.5852ZM30.1734 9.34689C29.9676 9.12633 29.6551 9.05826 29.3832 9.17807C29.1114 9.29788 28.9361 9.58106 28.9361 9.8969C28.9361 10.21 29.1114 10.496 29.3832 10.6157C29.6551 10.7355 29.9676 10.6675 30.1734 10.4442C30.4554 10.1419 30.4554 9.65187 30.1734 9.34689ZM37.3002 19.6155C36.1314 19.7081 35.1049 18.7878 34.9805 17.5379L33.0342 17.2329C32.8106 17.8047 32.3813 18.2595 31.8452 18.4937C31.863 23.9913 30.2572 29.3528 27.2566 33.8134C31.2024 32.0953 34.6169 29.2225 37.1119 25.5272C36.7156 24.969 36.5758 24.2502 36.7283 23.5694C36.8807 22.8859 37.3101 22.3141 37.8996 22.0091C37.7624 21.1949 37.5619 20.3943 37.3002 19.6155ZM37.6559 16.7428C37.4475 16.5195 37.1376 16.4542 36.8657 16.574C36.5939 16.6938 36.416 16.977 36.416 17.2928C36.416 17.6059 36.5939 17.8891 36.8657 18.0089C37.1376 18.1314 37.4475 18.0634 37.6559 17.8401C37.9379 17.5378 37.9379 17.0478 37.6559 16.7428ZM39.3531 23.5611C39.1448 23.3405 38.8348 23.2725 38.563 23.395C38.2936 23.5148 38.1158 23.798 38.1158 24.1111C38.1158 24.4242 38.2936 24.7074 38.563 24.8272C38.8348 24.947 39.1448 24.8817 39.3531 24.6611C39.4903 24.5141 39.5665 24.318 39.5665 24.1111C39.5665 23.9041 39.4903 23.7054 39.3531 23.5611ZM30.0975 37.1214C30.6336 37.1214 31.1493 37.3311 31.5482 37.715C35.0799 35.278 37.4402 31.3052 38.0043 26.8447C35.2476 30.7631 31.5076 33.7584 27.2214 35.4872C27.224 35.7894 27.1732 36.0889 27.0665 36.3694C27.6076 36.8323 28.131 37.2462 28.7128 37.6574V37.6547C29.1016 37.3088 29.5919 37.1187 30.0975 37.1214ZM27.9251 39.5095L27.9658 38.984C27.3382 38.5401 26.6954 38.0391 26.111 37.5353H26.1136C25.4987 37.9029 24.7568 37.9302 24.1216 37.6089C23.3492 38.3795 22.5286 39.0956 21.6647 39.7491C21.6851 39.8335 21.7003 39.9179 21.7105 40.0051C23.7913 40.3237 25.9128 40.1548 27.9277 39.5095L27.9251 39.5095ZM30.6107 38.9023C30.4024 38.6817 30.0924 38.6136 29.8206 38.7362C29.5513 38.856 29.3759 39.1392 29.3759 39.4523C29.3759 39.7654 29.5513 40.0486 29.8206 40.1684C30.0924 40.2882 30.4024 40.2228 30.6107 39.9996C30.8927 39.6973 30.8927 39.2072 30.6107 38.9023ZM19.5534 37.9628C20.0361 37.9601 20.5036 38.1344 20.8847 38.4502C21.5606 37.9301 22.211 37.3719 22.831 36.7756C20.1962 37.2685 17.5056 37.2903 14.8658 36.8382C15.7932 37.6225 16.8044 38.2841 17.8816 38.8097C18.2932 38.2732 18.9055 37.9628 19.5534 37.9628ZM20.0641 39.7436C19.8583 39.5204 19.5458 39.455 19.2765 39.5748C19.0046 39.6946 18.8293 39.9778 18.8293 40.2909C18.8293 40.6068 19.0046 40.8873 19.2765 41.0098C19.5458 41.1296 19.8583 41.0615 20.0641 40.8409C20.3486 40.536 20.3486 40.0459 20.0641 39.7436ZM12.4899 33.1622C13.5951 33.1622 14.5224 34.0472 14.652 35.2235C17.3782 35.7572 20.1731 35.7436 22.8943 35.1881C22.9273 34.9294 23.001 34.6816 23.1103 34.4502C20.3688 31.0927 18.481 27.0353 17.6273 22.6681C17.3123 22.6082 17.0124 22.4748 16.7507 22.276C14.5606 24.1031 12.7007 26.3468 11.2703 28.8982C12.0579 29.8295 12.0122 31.2645 11.1687 32.1386L11.8115 33.2795C12.03 33.2005 12.2586 33.1622 12.4899 33.1622ZM13.0031 34.9431C12.7947 34.7225 12.4848 34.6544 12.2129 34.7742C11.9436 34.894 11.7658 35.1772 11.7658 35.4903C11.7658 35.8062 11.9436 36.0894 12.2129 36.2092C12.4848 36.329 12.7948 36.2609 13.0031 36.0403C13.2851 35.7381 13.2851 35.2453 13.0031 34.9431ZM10.1727 29.9137C9.96686 29.6905 9.65435 29.6251 9.38505 29.7449C9.11319 29.8647 8.93788 30.1479 8.93788 30.461C8.93788 30.7741 9.11319 31.0574 9.38505 31.1771C9.65437 31.2997 9.96689 31.2316 10.1727 31.011C10.4572 30.7061 10.4572 30.216 10.1727 29.9137ZM30.4024 18.5701C29.7621 18.3632 29.2438 17.8485 29.0025 17.1814C25.9053 17.4374 22.8869 18.374 20.1403 19.9316C20.3182 20.9201 19.8812 21.9221 19.0554 22.4095C19.8608 26.4695 21.619 30.2433 24.1573 33.3746C24.6756 33.1268 25.265 33.105 25.7986 33.3147C28.7891 29.0668 30.4049 23.8903 30.4024 18.5701ZM31.5406 15.7872C31.3323 15.564 31.0223 15.4986 30.7505 15.6184C30.4786 15.7382 30.3008 16.0214 30.3008 16.3372C30.3008 16.6504 30.4786 16.9336 30.7505 17.0561C31.0224 17.1759 31.3323 17.1078 31.5406 16.8845C31.8227 16.5823 31.8227 16.0922 31.5406 15.7872ZM18.5171 19.8227C18.3112 19.5994 17.9987 19.5314 17.7269 19.6539C17.455 19.7737 17.2797 20.0569 17.2797 20.37C17.2797 20.6859 17.455 20.9691 17.7269 21.0888C17.9988 21.2086 18.3113 21.1433 18.5171 20.92C18.7991 20.615 18.7991 20.125 18.5171 19.8227ZM25.5625 34.9543C25.3567 34.731 25.0442 34.6629 24.7724 34.7854C24.5005 34.9053 24.3252 35.1884 24.3252 35.5016C24.3252 35.8174 24.5005 36.1006 24.7724 36.2204C25.0442 36.3402 25.3568 36.2748 25.5625 36.0516C25.8445 35.7466 25.8445 35.2565 25.5625 34.9543ZM31.9729 56.0138V60.9315C31.9703 61.9281 31.2182 62.7341 30.2884 62.7368H9.31455C8.8318 62.7586 8.36433 62.5462 8.04419 62.1595C7.72152 61.7702 7.57669 61.2501 7.65292 60.7381L10.4147 47.0063C4.1772 42.1785 0 34.6387 0 26.2382C0 19.2809 2.57629 12.6067 7.16776 7.68393C11.7589 2.76351 17.9864 0 24.4803 0C37.6795 0 47.5836 9.53329 47.5836 24.2508C47.5836 24.8771 47.5608 25.5306 47.5227 26.2113C47.4261 27.9186 48.3687 29.7294 49.0929 31.2543H49.0954C49.9999 32.9643 51.1509 34.511 52.5051 35.837C52.8989 36.2673 53.0717 36.8745 52.9726 37.4681C52.871 38.059 52.5076 38.5627 51.9995 38.816C51.1712 39.2625 50.2769 39.5512 49.3546 39.6628C48.3535 39.867 47.2839 40.0821 46.9866 40.3925H46.9891C46.8519 40.5314 46.9637 41.2775 47.073 42.0018C47.2254 43.0229 47.3728 44.0141 46.8647 44.6703H46.8621C46.326 45.1877 45.6578 45.5199 44.9413 45.6234C45.9728 46.0917 46.9231 46.8541 46.9485 48.1966C46.9891 50.3804 47.1822 53.4737 46.5547 55.1813C45.7366 57.4169 44.019 57.2508 41.5901 57.2453H41.5875C38.7546 57.3352 35.9242 57.0384 33.1625 56.3604C32.7509 56.2487 32.357 56.1344 31.9734 56.0118L31.9729 56.0138Z" fill="black"/>
</svg>
