<svg width="33" height="26" viewBox="0 0 33 26" fill="none" xmlns="http://www.w3.org/2000/svg">
<path d="M26.2883 0.699438C19.5599 -0.233146 12.64 -0.233146 5.90622 0.699438C3.12925 1.08455 0.96698 3.19664 0.530177 5.95965C0.176145 8.17536 0 10.4342 0 12.6793C0 14.9243 0.181335 17.2056 0.53535 19.4351C0.963642 22.1327 3.17421 24.2758 5.90299 24.656C9.26717 25.124 12.6986 25.3588 16.094 25.3588C19.4893 25.3588 22.9206 25.124 26.2851 24.656C29.0569 24.2709 31.2137 22.176 31.6527 19.4351C32.0068 17.2073 32.1881 14.9345 32.1881 12.6793C32.1881 10.4238 32.0067 8.15295 31.6527 5.9234C31.2244 3.22583 29.0139 1.08275 26.2851 0.702533L26.2883 0.699438ZM29.9081 19.1522C29.5938 21.1158 28.0429 22.6234 26.0448 22.9015C19.4755 23.8116 12.7192 23.8116 6.14991 22.9015C4.18288 22.6269 2.59575 21.0881 2.28663 19.1522C1.94641 17.0176 1.7737 14.8364 1.7737 12.6762C1.7737 10.514 1.9464 8.35698 2.28141 6.23464C2.59573 4.25032 4.15175 2.72885 6.15504 2.45081C9.43977 1.99491 12.7867 1.76519 16.1025 1.76519C19.4183 1.76519 22.7651 1.99487 26.0499 2.45081C28.017 2.7254 29.6041 4.26416 29.9132 6.20011C30.2534 8.33466 30.4261 10.5158 30.4261 12.6761C30.4261 14.8383 30.2534 17.0178 29.9132 19.1521L29.9081 19.1522Z" fill="white"/>
<path d="M21.8543 12.0554L12.6408 6.73635C12.3662 6.57747 12.0312 6.57747 11.7566 6.73635C11.482 6.89524 11.3145 7.18708 11.3145 7.50142V18.1381C11.3145 18.4524 11.482 18.7477 11.7566 18.9032C11.893 18.9826 12.0432 19.0223 12.1987 19.0223C12.3541 19.0223 12.5043 18.9826 12.6408 18.9032L21.8543 13.5842C22.1289 13.4253 22.2964 13.1334 22.2964 12.8191C22.2964 12.5048 22.1289 12.2095 21.8543 12.054V12.0554ZM13.0829 16.6095V9.03134L19.6438 12.8203L13.0829 16.6095Z" fill="white"/>
</svg>
