<svg width="42" height="42" viewBox="0 0 42 42" fill="none" xmlns="http://www.w3.org/2000/svg">
<circle cx="21" cy="21" r="21" fill="#0BB26A"/>
<path d="M33.9572 14.0096C33.6406 12.8251 32.7075 11.8921 31.523 11.5754C29.3761 11 20.7663 11 20.7663 11C20.7663 11 12.1566 11 10.0096 11.5754C8.82511 11.8921 7.89206 12.8251 7.57543 14.0096C7 16.1566 7 20.6364 7 20.6364C7 20.6364 7 25.1163 7.57543 27.2632C7.89206 28.4477 8.82511 29.3808 10.0096 29.6974C12.1566 30.2729 20.7663 30.2728 20.7663 30.2728C20.7663 30.2728 29.3761 30.2729 31.523 29.6974C32.7075 29.3808 33.6406 28.4477 33.9572 27.2632C34.5326 25.1163 34.5326 20.6364 34.5326 20.6364C34.5326 20.6364 34.5326 16.1566 33.9572 14.0096ZM18.0131 24.7663V16.5065L25.166 20.6364L18.0131 24.7663Z" fill="black"/>
</svg>
